<?xml version="1.0" encoding="UTF-8" standalone="no"?>
<svg width="614px" height="618px" viewBox="0 0 614 618" version="1.1" xmlns="http://www.w3.org/2000/svg" xmlns:xlink="http://www.w3.org/1999/xlink">
    <!-- Generator: Sketch 3.6 (26304) - http://www.bohemiancoding.com/sketch -->
    <title>Box</title>
    <desc>Created with Sketch.</desc>
    <defs>
        <filter x="-50%" y="-50%" width="200%" height="200%" filterUnits="objectBoundingBox" id="filter-1">
            <feGaussianBlur stdDeviation="20" in="SourceGraphic" result="blur"></feGaussianBlur>
        </filter>
        <linearGradient x1="50%" y1="100%" x2="50%" y2="3.061617e-15%" id="linearGradient-2">
            <stop stop-color="#0057AD" offset="0%"></stop>
            <stop stop-color="#EEEEEE" stop-opacity="0.5" offset="100%"></stop>
        </linearGradient>
        <path id="path-3" d="M0,28.4444444 L32.6712329,46.2222222 L134.315068,0 L181.506849,21.3333333 L152.465753,85.3333333 L32.6712329,99.5555556 L0,28.4444444 Z"></path>
        <linearGradient x1="38.6127673%" y1="7.49176624%" x2="72.9132401%" y2="85.8360141%" id="linearGradient-5">
            <stop stop-color="#CCCCCC" offset="0%"></stop>
            <stop stop-color="#FFFFFF" offset="34.9985946%"></stop>
            <stop stop-color="#CCCCCC" offset="69.9971893%"></stop>
            <stop stop-color="#FFFFFF" offset="100%"></stop>
        </linearGradient>
        <linearGradient x1="50%" y1="0%" x2="50%" y2="100%" id="linearGradient-6">
            <stop stop-color="#F8F8F8" stop-opacity="0.5" offset="0%"></stop>
            <stop stop-color="#EEEEEE" stop-opacity="0.5" offset="100%"></stop>
        </linearGradient>
        <linearGradient x1="50%" y1="100%" x2="50%" y2="0%" id="linearGradient-7">
            <stop stop-color="#FFFFFF" offset="0%"></stop>
            <stop stop-color="#FFFFFF" stop-opacity="0.2" offset="100%"></stop>
        </linearGradient>
        <linearGradient x1="50%" y1="2.77555756e-15%" x2="50%" y2="74.7802734%" id="linearGradient-8">
            <stop stop-color="#0057AD" offset="0%"></stop>
            <stop stop-color="#0057AD" stop-opacity="0.5" offset="100%"></stop>
        </linearGradient>
        <path id="path-9" d="M50.8219178,149.333333 L83.4931507,167.111111 L185.136986,120.888889 L163.356164,0 L61.7123288,0 L0,32 L50.8219178,149.333333 Z"></path>
    </defs>
    <g id="Page-1" stroke="none" stroke-width="1" fill="none" fill-rule="evenodd">
        <g id="Box" transform="translate(42.000000, -1.000000)">
            <path d="M0,371.905087 L265,280.444444 L265,572 L0,371.905087 Z M530,371.905087 L265,280.444444 L265,572 L530,371.905087 Z" id="Combined-Shape-Copy" fill-opacity="0.75" fill="#0057AD" filter="url(#filter-1)"></path>
            <path d="M0,329.682865 L265,238.222222 L265,529.777778 L0,329.682865 Z M530,329.682865 L265,238.222222 L265,529.777778 L530,329.682865 Z" id="Combined-Shape-Copy" fill="url(#linearGradient-2)"></path>
            <g id="Path-26-Copy" transform="translate(196.027397, 120.888889)">
                <g id="Path-26">
                    <mask id="mask-4" fill="white">
                        <use xlink:href="#path-3"></use>
                    </mask>
                    <use id="Mask" xlink:href="#path-3"></use>
                    <path d="M-18.1506849,-88.8888889 L65.3424658,-117.333333 C65.3424658,-117.333333 105.273973,-85.3333333 105.273973,-39.1111111 C105.273973,7.11111111 116.164384,24.8888889 116.164384,24.8888889 L36.3013699,64 C36.3013699,64 25.4109589,56.8888889 25.4109589,-10.6666667 C25.4109589,-78.2222222 -18.1506849,-88.8888889 -18.1506849,-88.8888889 Z" stroke="#0057AD" stroke-width="4" stroke-linecap="round" fill="url(#linearGradient-5)" mask="url(#mask-4)"></path>
                </g>
            </g>
            <path d="M0,110.222222 L1.61210467e-14,330.311111 L265,527.777778 L265,239.628704 L0,110.222222 Z" id="Path-11" fill="url(#linearGradient-6)"></path>
            <path d="M530,110.222222 L530,328.311111 L265,525.777778 L265,239.628704 L530,110.222222 Z" id="Path-11-Copy" fill="url(#linearGradient-6)"></path>
            <path d="M0,110.222222 L265,28.4444444 L265,241.88233 L0,110.222222 Z M530,110.222222 L265,28.4444444 L265,241.88233 L530,110.222222 Z" id="Combined-Shape" fill="url(#linearGradient-6)"></path>
            <path d="M265,245.333333 L3.63013699,113.777778" id="Line" stroke="url(#linearGradient-7)" stroke-width="4"></path>
            <path d="M526.369863,245.333333 L265,113.777778" id="Line" stroke="url(#linearGradient-7)" stroke-width="4" transform="translate(395.684932, 179.555556) scale(-1, 1) translate(-395.684932, -179.555556) "></path>
            <path d="M0,110.222222 L268.630137,28.4444444 L530,110.222222 L530,327.111111 L265,526.222222 L0,330.666667 L0,110.222222 Z" id="Path-20" stroke="#0057AD" stroke-width="4"></path>
            <path d="M196.027397,149.333333 L228.69863,167.111111 L330.342466,120.888889 L294.041096,106.666667 L196.027397,149.333333 Z" id="Path-21" stroke="#FFFFFF" stroke-width="4" fill="url(#linearGradient-8)"></path>
            <g id="Path-26" transform="translate(145.205479, 0.000000)">
                <mask id="mask-10" fill="white">
                    <use xlink:href="#path-9"></use>
                </mask>
                <use id="Mask" xlink:href="#path-9"></use>
                <path d="M32.6712329,33.1154684 L116.164384,3.55555556 C116.164384,3.55555556 156.09589,36.8104575 156.09589,84.8453159 C156.09589,132.880174 166.986301,151.35512 166.986301,151.35512 L87.1232877,192 C87.1232877,192 76.2328767,184.610022 76.2328767,114.405229 C76.2328767,44.2004357 32.6712329,33.1154684 32.6712329,33.1154684 Z" stroke="#0057AD" stroke-width="4" stroke-linecap="round" fill="url(#linearGradient-5)" mask="url(#mask-10)"></path>
            </g>
            <path d="M196.027397,149.333333 L228.69863,167.111111 L330.342466,120.888889" id="Path-21" stroke="#FFFFFF" stroke-width="4"></path>
            <g id="Group-5" transform="translate(258.939787, 87.063893) rotate(29.000000) translate(-258.939787, -87.063893) translate(240.439787, 58.563893)" stroke="#FF8300" stroke-width="5.33333333" stroke-linecap="round">
                <path d="M0.716842224,41.0900994 C0.716842224,41.0900994 17.6025213,12.1299435 30.0558395,3.07364723" id="Path-8"></path>
                <path d="M7.16859237,56.7019906 C7.16859237,56.7019906 24.0542715,27.7418347 36.5075896,18.6855384" id="Path-8-Copy"></path>
                <path d="M24.3404207,55.8944824 C24.3404207,55.8944824 13.8164873,21.3493576 13.8164874,0.629260365" id="Path-31"></path>
            </g>
            <path d="M265.445205,241.777778 L265.445205,524.494765" id="Line" stroke-opacity="0.5" stroke="#FFFFFF" stroke-width="4"></path>
        </g>
    </g>
</svg>