<?xml version="1.0" encoding="UTF-8" standalone="no"?>
<svg width="399px" height="571px" viewBox="0 0 399 571" version="1.1" xmlns="http://www.w3.org/2000/svg" xmlns:xlink="http://www.w3.org/1999/xlink">
    <!-- Generator: Sketch 3.6 (26304) - http://www.bohemiancoding.com/sketch -->
    <title>Group</title>
    <desc>Created with Sketch.</desc>
    <defs>
        <path id="path-1" d="M199.5,399 C309.680808,399 399,309.680808 399,199.5 C399,89.3191924 309.680808,0 199.5,0 C196.088619,0 192.697237,0.0856235463 189.327886,0.254838777 C83.8738754,5.55093906 0,92.7305729 0,199.5 C0,309.680808 89.3191924,399 199.5,399 Z"></path>
    </defs>
    <g id="Page-1" stroke="none" stroke-width="1" fill="none" fill-rule="evenodd">
        <g id="Group">
            <path d="M147.193359,74 L139.649414,74 L139.649414,53.3457031 L139.722656,49.9521484 L139.844727,46.2412109 C138.591465,47.4944724 137.720706,48.3164043 137.232422,48.7070312 L133.130859,52.0029297 L129.493164,47.4619141 L140.992188,38.3066406 L147.193359,38.3066406 L147.193359,74 Z M175.733398,74 L168.189453,74 L168.189453,53.3457031 L168.262695,49.9521484 L168.384766,46.2412109 C167.131504,47.4944724 166.260745,48.3164043 165.772461,48.7070312 L161.670898,52.0029297 L158.033203,47.4619141 L169.532227,38.3066406 L175.733398,38.3066406 L175.733398,74 Z M186.475586,70.5087891 C186.475586,69.1415947 186.841793,68.1080764 187.574219,67.4082031 C188.306644,66.7083298 189.372714,66.3583984 190.772461,66.3583984 C192.123379,66.3583984 193.169104,66.7164678 193.909668,67.4326172 C194.650232,68.1487666 195.020508,69.174147 195.020508,70.5087891 C195.020508,71.7946028 194.646163,72.8077762 193.897461,73.5483398 C193.148759,74.2889034 192.107103,74.6591797 190.772461,74.6591797 C189.405267,74.6591797 188.347334,74.2970414 187.598633,73.5727539 C186.849931,72.8484664 186.475586,71.827155 186.475586,70.5087891 L186.475586,70.5087891 Z M203.418945,74 L216.822266,44.703125 L199.219727,44.703125 L199.219727,38.3554688 L224.830078,38.3554688 L224.830078,43.0917969 L211.329102,74 L203.418945,74 Z M234.107422,49 C234.107422,51.0670676 234.290526,52.6092072 234.656738,53.6264648 C235.022951,54.6437225 235.612952,55.1523438 236.426758,55.1523438 C237.989266,55.1523438 238.770508,53.101583 238.770508,49 C238.770508,44.9309692 237.989266,42.8964844 236.426758,42.8964844 C235.612952,42.8964844 235.022951,43.3969677 234.656738,44.3979492 C234.290526,45.3989308 234.107422,46.9329324 234.107422,49 L234.107422,49 Z M244.922852,48.9511719 C244.922852,52.6946802 244.198575,55.5063383 242.75,57.3862305 C241.301425,59.2661227 239.177423,60.2060547 236.37793,60.2060547 C233.692369,60.2060547 231.617195,59.2417089 230.152344,57.3129883 C228.687493,55.3842677 227.955078,52.5970234 227.955078,48.9511719 C227.955078,41.5129836 230.762667,37.7939453 236.37793,37.7939453 C239.128594,37.7939453 241.24039,38.7582911 242.713379,40.6870117 C244.186368,42.6157323 244.922852,45.3704248 244.922852,48.9511719 L244.922852,48.9511719 Z M261.719727,38.3066406 L241.919922,74 L236.060547,74 L255.860352,38.3066406 L261.719727,38.3066406 Z M259.107422,63.2578125 C259.107422,65.3248801 259.290526,66.8670197 259.656738,67.8842773 C260.022951,68.901535 260.612952,69.4101562 261.426758,69.4101562 C262.989266,69.4101562 263.770508,67.3593955 263.770508,63.2578125 C263.770508,59.1887817 262.989266,57.1542969 261.426758,57.1542969 C260.612952,57.1542969 260.022951,57.6547802 259.656738,58.6557617 C259.290526,59.6567433 259.107422,61.1907449 259.107422,63.2578125 L259.107422,63.2578125 Z M269.922852,63.2089844 C269.922852,66.9362166 269.198575,69.7397367 267.75,71.6196289 C266.301425,73.4995211 264.177423,74.4394531 261.37793,74.4394531 C258.692369,74.4394531 256.617195,73.4751073 255.152344,71.5463867 C253.687493,69.6176661 252.955078,66.8385598 252.955078,63.2089844 C252.955078,55.7707961 255.762667,52.0517578 261.37793,52.0517578 C264.128594,52.0517578 266.24039,53.0161036 267.713379,54.9448242 C269.186368,56.8735448 269.922852,59.6282373 269.922852,63.2089844 L269.922852,63.2089844 Z" id="11.7%" fill="#FFFFFF"></path>
            <path d="M135.967773,16 L134.932617,12.6015625 L129.727539,12.6015625 L128.692383,16 L125.430664,16 L130.469727,1.6640625 L134.170898,1.6640625 L139.229492,16 L135.967773,16 Z M134.209961,10.0625 C133.252925,6.98305752 132.714193,5.24153848 132.59375,4.83789062 C132.473307,4.43424277 132.387045,4.11523555 132.334961,3.88085938 C132.120116,4.71419687 131.504888,6.77472314 130.489258,10.0625 L134.209961,10.0625 Z M146.788086,16.1953125 C145.505527,16.1953125 144.499678,15.7298224 143.770508,14.7988281 L143.614258,14.7988281 C143.718425,15.710291 143.770508,16.2376295 143.770508,16.3808594 L143.770508,20.8046875 L140.791992,20.8046875 L140.791992,5.08203125 L143.213867,5.08203125 L143.633789,6.49804688 L143.770508,6.49804688 C144.467126,5.4173123 145.499017,4.87695312 146.866211,4.87695312 C148.15528,4.87695312 149.164384,5.37499502 149.893555,6.37109375 C150.622725,7.36719248 150.987305,8.75064219 150.987305,10.5214844 C150.987305,11.6868548 150.816408,12.6992145 150.474609,13.5585938 C150.132811,14.417973 149.646162,15.0722634 149.014648,15.5214844 C148.383135,15.9707054 147.640955,16.1953125 146.788086,16.1953125 L146.788086,16.1953125 Z M145.90918,7.25976562 C145.173499,7.25976562 144.636395,7.48600034 144.297852,7.93847656 C143.959308,8.39095278 143.783529,9.13801563 143.770508,10.1796875 L143.770508,10.5019531 C143.770508,11.673834 143.94466,12.5136693 144.292969,13.0214844 C144.641278,13.5292994 145.19303,13.7832031 145.948242,13.7832031 C147.282884,13.7832031 147.950195,12.6829537 147.950195,10.4824219 C147.950195,9.40819775 147.785809,8.60254175 147.457031,8.06542969 C147.128254,7.52831763 146.612308,7.25976562 145.90918,7.25976562 L145.90918,7.25976562 Z M159.444336,16.1953125 C158.161777,16.1953125 157.155928,15.7298224 156.426758,14.7988281 L156.270508,14.7988281 C156.374675,15.710291 156.426758,16.2376295 156.426758,16.3808594 L156.426758,20.8046875 L153.448242,20.8046875 L153.448242,5.08203125 L155.870117,5.08203125 L156.290039,6.49804688 L156.426758,6.49804688 C157.123376,5.4173123 158.155267,4.87695312 159.522461,4.87695312 C160.81153,4.87695312 161.820634,5.37499502 162.549805,6.37109375 C163.278975,7.36719248 163.643555,8.75064219 163.643555,10.5214844 C163.643555,11.6868548 163.472658,12.6992145 163.130859,13.5585938 C162.789061,14.417973 162.302412,15.0722634 161.670898,15.5214844 C161.039385,15.9707054 160.297205,16.1953125 159.444336,16.1953125 L159.444336,16.1953125 Z M158.56543,7.25976562 C157.829749,7.25976562 157.292645,7.48600034 156.954102,7.93847656 C156.615558,8.39095278 156.439779,9.13801563 156.426758,10.1796875 L156.426758,10.5019531 C156.426758,11.673834 156.60091,12.5136693 156.949219,13.0214844 C157.297528,13.5292994 157.84928,13.7832031 158.604492,13.7832031 C159.939134,13.7832031 160.606445,12.6829537 160.606445,10.4824219 C160.606445,9.40819775 160.442059,8.60254175 160.113281,8.06542969 C159.784504,7.52831763 159.268558,7.25976562 158.56543,7.25976562 L158.56543,7.25976562 Z M172.198242,4.87695312 C172.60189,4.87695312 172.937173,4.90624971 173.204102,4.96484375 L172.979492,7.7578125 C172.738606,7.69270801 172.44564,7.66015625 172.100586,7.66015625 C171.15006,7.66015625 170.409508,7.90429443 169.878906,8.39257812 C169.348305,8.88086182 169.083008,9.56444873 169.083008,10.4433594 L169.083008,16 L166.104492,16 L166.104492,5.08203125 L168.360352,5.08203125 L168.799805,6.91796875 L168.946289,6.91796875 C169.284832,6.30598652 169.742185,5.81282739 170.318359,5.43847656 C170.894534,5.06412573 171.521155,4.87695312 172.198242,4.87695312 L172.198242,4.87695312 Z M177.15918,10.5214844 C177.15918,11.6022189 177.336587,12.4192681 177.691406,12.9726562 C178.046226,13.5260444 178.624019,13.8027344 179.424805,13.8027344 C180.219079,13.8027344 180.790363,13.527672 181.138672,12.9775391 C181.486981,12.4274061 181.661133,11.6087294 181.661133,10.5214844 C181.661133,9.4407498 181.485353,8.63021104 181.133789,8.08984375 C180.782225,7.54947646 180.206059,7.27929688 179.405273,7.27929688 C178.610999,7.27929688 178.038088,7.54784888 177.686523,8.08496094 C177.334959,8.622073 177.15918,9.43423936 177.15918,10.5214844 L177.15918,10.5214844 Z M184.708008,10.5214844 C184.708008,12.298837 184.239262,13.6887971 183.301758,14.6914062 C182.364253,15.6940154 181.058928,16.1953125 179.385742,16.1953125 C178.33756,16.1953125 177.41309,15.9658226 176.612305,15.5068359 C175.811519,15.0478493 175.196291,14.3886762 174.766602,13.5292969 C174.336912,12.6699176 174.12207,11.6673234 174.12207,10.5214844 C174.12207,8.73762129 174.58756,7.35091641 175.518555,6.36132812 C176.449549,5.37173984 177.75813,4.87695312 179.444336,4.87695312 C180.492518,4.87695312 181.416988,5.10481543 182.217773,5.56054688 C183.018559,6.01627832 183.633787,6.67056865 184.063477,7.5234375 C184.493166,8.37630635 184.708008,9.37564531 184.708008,10.5214844 L184.708008,10.5214844 Z M189.004883,10.4238281 L185.489258,5.08203125 L188.868164,5.08203125 L190.987305,8.55859375 L193.125977,5.08203125 L196.504883,5.08203125 L192.950195,10.4238281 L196.670898,16 L193.282227,16 L190.987305,12.2597656 L188.682617,16 L185.303711,16 L189.004883,10.4238281 Z M198.204102,2.25976562 C198.204102,1.28970869 198.744461,0.8046875 199.825195,0.8046875 C200.90593,0.8046875 201.446289,1.28970869 201.446289,2.25976562 C201.446289,2.72200752 201.311199,3.08170444 201.041016,3.33886719 C200.770832,3.59602993 200.365563,3.72460938 199.825195,3.72460938 C198.744461,3.72460938 198.204102,3.23633301 198.204102,2.25976562 L198.204102,2.25976562 Z M201.30957,16 L198.331055,16 L198.331055,5.08203125 L201.30957,5.08203125 L201.30957,16 Z M214.209961,16 L211.231445,16 L211.231445,9.62304688 C211.231445,8.83528252 211.099611,8.24446812 210.835938,7.85058594 C210.572264,7.45670376 210.157229,7.25976562 209.59082,7.25976562 C208.829098,7.25976562 208.275718,7.53971074 207.930664,8.09960938 C207.58561,8.65950801 207.413086,9.58072275 207.413086,10.8632812 L207.413086,16 L204.43457,16 L204.43457,5.08203125 L206.709961,5.08203125 L207.110352,6.47851562 L207.276367,6.47851562 C207.569337,5.97721104 207.99251,5.58496235 208.545898,5.30175781 C209.099287,5.01855327 209.734046,4.87695312 210.450195,4.87695312 C212.084318,4.87695312 213.191078,5.41080195 213.770508,6.47851562 L214.03418,6.47851562 C214.32715,5.97070059 214.758461,5.57682432 215.328125,5.296875 C215.897789,5.01692568 216.540687,4.87695312 217.256836,4.87695312 C218.493821,4.87695312 219.429684,5.19433276 220.064453,5.82910156 C220.699222,6.46387036 221.016602,7.48111279 221.016602,8.88085938 L221.016602,16 L218.02832,16 L218.02832,9.62304688 C218.02832,8.83528252 217.896486,8.24446812 217.632812,7.85058594 C217.369139,7.45670376 216.954104,7.25976562 216.387695,7.25976562 C215.658525,7.25976562 215.113283,7.52017969 214.751953,8.04101562 C214.390623,8.56185156 214.209961,9.38866621 214.209961,10.5214844 L214.209961,16 Z M231.006836,16 L230.430664,14.515625 L230.352539,14.515625 C229.851234,15.1471386 229.335289,15.5849597 228.804688,15.8291016 C228.274086,16.0732434 227.582361,16.1953125 226.729492,16.1953125 C225.68131,16.1953125 224.856123,15.8958363 224.253906,15.296875 C223.65169,14.6979137 223.350586,13.8450576 223.350586,12.7382812 C223.350586,11.5794213 223.755855,10.7249376 224.566406,10.1748047 C225.376957,9.62467173 226.599276,9.32031279 228.233398,9.26171875 L230.12793,9.203125 L230.12793,8.72460938 C230.12793,7.61783301 229.561529,7.06445312 228.428711,7.06445312 C227.556311,7.06445312 226.53093,7.32812236 225.352539,7.85546875 L224.366211,5.84375 C225.622728,5.18619463 227.015943,4.85742188 228.545898,4.85742188 C230.01075,4.85742188 231.133785,5.1764291 231.915039,5.81445312 C232.696293,6.45247715 233.086914,7.42251953 233.086914,8.72460938 L233.086914,16 L231.006836,16 Z M230.12793,10.9414062 L228.975586,10.9804688 C228.109696,11.0065105 227.465171,11.162759 227.041992,11.4492188 C226.618813,11.7356785 226.407227,12.1718721 226.407227,12.7578125 C226.407227,13.5976604 226.888993,14.0175781 227.852539,14.0175781 C228.542647,14.0175781 229.094399,13.8190124 229.507812,13.421875 C229.921226,13.0247376 230.12793,12.4973991 230.12793,11.8398438 L230.12793,10.9414062 Z M240.75293,13.8222656 C241.273766,13.8222656 241.898759,13.7083345 242.62793,13.4804688 L242.62793,15.6972656 C241.885738,16.0292985 240.974289,16.1953125 239.893555,16.1953125 C238.702142,16.1953125 237.834638,15.8942087 237.291016,15.2919922 C236.747393,14.6897756 236.475586,13.7864644 236.475586,12.5820312 L236.475586,7.31835938 L235.049805,7.31835938 L235.049805,6.05859375 L236.69043,5.0625 L237.549805,2.7578125 L239.454102,2.7578125 L239.454102,5.08203125 L242.510742,5.08203125 L242.510742,7.31835938 L239.454102,7.31835938 L239.454102,12.5820312 C239.454102,13.0052104 239.572915,13.3177073 239.810547,13.5195312 C240.048178,13.7213552 240.362303,13.8222656 240.75293,13.8222656 L240.75293,13.8222656 Z M249.356445,6.99609375 C248.724932,6.99609375 248.230145,7.19628706 247.87207,7.59667969 C247.513996,7.99707231 247.30892,8.56510049 247.256836,9.30078125 L251.436523,9.30078125 C251.423503,8.56510049 251.231447,7.99707231 250.860352,7.59667969 C250.489256,7.19628706 249.987959,6.99609375 249.356445,6.99609375 L249.356445,6.99609375 Z M249.776367,16.1953125 C248.018546,16.1953125 246.644862,15.7102913 245.655273,14.7402344 C244.665685,13.7701774 244.170898,12.3964933 244.170898,10.6191406 C244.170898,8.78970439 244.628251,7.37533052 245.542969,6.37597656 C246.457687,5.37662261 247.722323,4.87695312 249.336914,4.87695312 C250.879891,4.87695312 252.08105,5.31640186 252.94043,6.1953125 C253.799809,7.07422314 254.229492,8.28840371 254.229492,9.83789062 L254.229492,11.2832031 L247.188477,11.2832031 C247.221029,12.1295615 247.471677,12.7903622 247.94043,13.265625 C248.409182,13.7408878 249.066728,13.9785156 249.913086,13.9785156 C250.570641,13.9785156 251.19238,13.9101569 251.77832,13.7734375 C252.364261,13.6367181 252.976234,13.4186213 253.614258,13.1191406 L253.614258,15.4238281 C253.093422,15.6842461 252.536787,15.8779291 251.944336,16.0048828 C251.351885,16.1318366 250.629236,16.1953125 249.776367,16.1953125 L249.776367,16.1953125 Z M259.629883,16 L256.651367,16 L256.651367,0.8046875 L259.629883,0.8046875 L259.629883,16 Z M261.192383,5.08203125 L264.454102,5.08203125 L266.514648,11.2246094 C266.690431,11.7584662 266.810872,12.3899703 266.875977,13.1191406 L266.93457,13.1191406 C267.006185,12.4485644 267.146158,11.8170603 267.354492,11.2246094 L269.375977,5.08203125 L272.569336,5.08203125 L267.950195,17.3964844 C267.527016,18.535813 266.923181,19.388669 266.138672,19.9550781 C265.354163,20.5214872 264.437831,20.8046875 263.389648,20.8046875 C262.875323,20.8046875 262.370771,20.7493495 261.875977,20.6386719 L261.875977,18.2753906 C262.234051,18.3600265 262.624672,18.4023438 263.047852,18.4023438 C263.575198,18.4023438 264.035805,18.2412125 264.429688,17.9189453 C264.82357,17.5966781 265.131184,17.1100293 265.352539,16.4589844 L265.52832,15.921875 L261.192383,5.08203125 Z" id="Approximately" fill="#DDDDDD"></path>
            <path d="M93.6337891,108.02832 C93.9169936,108.594729 94.1293938,109.192868 94.2709961,109.822754 C94.4125984,110.45264 94.4833984,111.055661 94.4833984,111.631836 C94.4833984,112.208011 94.4199225,112.78906 94.2929688,113.375 C94.166015,113.96094 93.9829114,114.527341 93.7436523,115.074219 C93.5043933,115.621096 93.2114275,116.133787 92.8647461,116.612305 C92.5180647,117.090823 92.1225608,117.505858 91.6782227,117.857422 C91.2338845,118.208986 90.7480495,118.487304 90.2207031,118.692383 C89.6933567,118.897462 89.1318389,119 88.5361328,119 C87.6767535,119 86.9418976,118.812014 86.331543,118.436035 C85.7211884,118.060057 85.2207051,117.569339 84.8300781,116.963867 C84.4394512,116.358395 84.1538095,115.674808 83.9731445,114.913086 C83.7924796,114.151363 83.7021484,113.379887 83.7021484,112.598633 C83.7021484,111.524409 83.8632796,110.521001 84.1855469,109.588379 C84.5078141,108.655757 84.9692353,107.845218 85.5698242,107.156738 C86.1704132,106.468258 86.9052691,105.926272 87.7744141,105.530762 C88.643559,105.135252 89.6201118,104.9375 90.7041016,104.9375 C91.6318406,104.9375 92.5009725,105.081542 93.3115234,105.369629 C94.1220744,105.657716 94.8813441,106.043455 95.5893555,106.526855 C96.2973668,107.010256 96.9565399,107.56445 97.5668945,108.189453 C98.1772491,108.814456 98.7460911,109.458981 99.2734375,110.123047 L98.9951172,112.188477 C98.731444,111.836912 98.3750022,111.456057 97.9257812,111.045898 C97.4765603,110.63574 97.0004908,110.235354 96.4975586,109.844727 C95.9946264,109.4541 95.4990259,109.085451 95.0107422,108.73877 C94.5224585,108.392088 94.1025408,108.101564 93.7509766,107.867188 L93.6337891,108.02832 Z M89.1074219,116.1875 C89.4394548,116.1875 89.7617172,116.019045 90.0742188,115.682129 C90.3867203,115.345213 90.6601551,114.920413 90.8945312,114.407715 C91.1289074,113.895017 91.3168938,113.328616 91.4584961,112.708496 C91.6000984,112.088376 91.6708984,111.49512 91.6708984,110.928711 C91.6708984,110.47949 91.6367191,110.062014 91.5683594,109.67627 C91.4999997,109.290525 91.3974616,108.956056 91.2607422,108.672852 C91.1240228,108.389647 90.9482433,108.16504 90.7333984,107.999023 C90.5185536,107.833007 90.2597671,107.75 89.9570312,107.75 C89.5566386,107.75 89.1757831,107.920897 88.8144531,108.262695 C88.4531232,108.604494 88.1357436,109.041501 87.8623047,109.57373 C87.5888658,110.10596 87.3740242,110.694333 87.2177734,111.338867 C87.0615227,111.983402 86.9833984,112.603513 86.9833984,113.199219 C86.9833984,113.609377 87.0224605,113.995115 87.1005859,114.356445 C87.1787113,114.717775 87.3007804,115.032714 87.4667969,115.30127 C87.6328133,115.569826 87.8525377,115.784667 88.1259766,115.945801 C88.3994154,116.106934 88.7265606,116.1875 89.1074219,116.1875 L89.1074219,116.1875 Z M97.4277344,115.938477 C97.4277344,115.508787 97.4521482,115.008304 97.5009766,114.437012 C97.5498049,113.86572 97.6157222,113.262698 97.6987305,112.62793 C97.7817387,111.993161 97.879394,111.346195 97.9916992,110.687012 C98.1040045,110.027829 98.2236322,109.400394 98.3505859,108.804688 C98.4775397,108.208981 98.6044916,107.662112 98.7314453,107.164062 C98.8583991,106.666013 98.9853509,106.255861 99.1123047,105.933594 C99.1904301,105.718749 99.2685543,105.547852 99.3466797,105.420898 C99.4248051,105.293945 99.5151362,105.193848 99.6176758,105.120605 C99.7202154,105.047363 99.8471672,104.998535 99.9985352,104.974121 C100.149903,104.949707 100.33789,104.9375 100.5625,104.9375 C100.816408,104.9375 101.014159,104.949707 101.155762,104.974121 C101.297364,104.998535 101.402343,105.057128 101.470703,105.149902 C101.539063,105.242676 101.580566,105.376952 101.595215,105.552734 C101.609863,105.728517 101.617188,105.967772 101.617188,106.270508 L101.617188,107.581543 C101.617188,108.094241 101.626953,108.599607 101.646484,109.097656 L101.807617,109.097656 C102.002931,108.707029 102.222655,108.270022 102.466797,107.786621 C102.710939,107.30322 102.994139,106.851565 103.316406,106.431641 C103.638673,106.011717 104.004881,105.657716 104.415039,105.369629 C104.825197,105.081542 105.298825,104.9375 105.835938,104.9375 C106.021485,104.9375 106.202148,104.969238 106.37793,105.032715 C106.553712,105.096192 106.707519,105.186523 106.839355,105.303711 C106.971192,105.420899 107.076171,105.564941 107.154297,105.73584 C107.232422,105.906739 107.271484,106.099608 107.271484,106.314453 C107.271484,106.48047 107.247071,106.712401 107.198242,107.010254 C107.149414,107.308107 107.095703,107.620604 107.037109,107.947754 C106.978515,108.274904 106.924805,108.592284 106.875977,108.899902 C106.827148,109.207521 106.802734,109.463866 106.802734,109.668945 C106.802734,110.02051 106.836914,110.313475 106.905273,110.547852 C106.973633,110.782228 107.063964,110.970214 107.17627,111.111816 C107.288575,111.253419 107.415527,111.353515 107.557129,111.412109 C107.698731,111.470703 107.847655,111.5 108.003906,111.5 C108.443362,111.5 108.897459,111.402345 109.366211,111.207031 C109.834963,111.011718 110.264646,110.791993 110.655273,110.547852 C111.11426,110.264647 111.563474,109.942385 112.00293,109.581055 L111.783203,113.008789 C111.529296,113.174806 111.241213,113.360351 110.918945,113.56543 C110.596678,113.770509 110.252443,113.963378 109.88623,114.144043 C109.520018,114.324708 109.139162,114.476074 108.743652,114.598145 C108.348143,114.720215 107.945315,114.78125 107.535156,114.78125 C106.802731,114.78125 106.211916,114.632326 105.762695,114.334473 C105.313474,114.03662 104.957033,113.645999 104.693359,113.162598 C104.429686,112.679197 104.234376,112.13721 104.107422,111.536621 C103.980468,110.936032 103.87793,110.328128 103.799805,109.712891 L103.56543,109.712891 L100.943359,117.022461 C100.80664,117.403322 100.677247,117.71826 100.555176,117.967285 C100.433105,118.21631 100.308594,118.418945 100.181641,118.575195 C100.054687,118.731446 99.9179695,118.841308 99.7714844,118.904785 C99.6249993,118.968262 99.4638681,119 99.2880859,119 C98.8876933,119 98.5654309,118.914552 98.3212891,118.743652 C98.0771472,118.572753 97.8891608,118.343263 97.7573242,118.055176 C97.6254876,117.767088 97.5375979,117.439943 97.4936523,117.07373 C97.4497068,116.707518 97.4277344,116.329104 97.4277344,115.938477 L97.4277344,115.938477 Z M127.222656,118.985352 C126.939452,118.985352 126.65381,118.943848 126.365723,118.86084 C126.077635,118.777832 125.789552,118.665528 125.501465,118.523926 C125.213377,118.382324 124.925294,118.221192 124.637207,118.040527 C124.34912,117.859862 124.063478,117.666993 123.780273,117.461914 C123.213864,117.891604 122.613284,118.240721 121.978516,118.509277 C121.343747,118.777833 120.669925,118.936523 119.957031,118.985352 C119.449216,118.985352 118.975588,118.89502 118.536133,118.714355 C118.096677,118.533691 117.713381,118.294435 117.38623,117.996582 C117.05908,117.698729 116.802735,117.354494 116.617188,116.963867 C116.43164,116.57324 116.338867,116.172854 116.338867,115.762695 C116.338867,115.440428 116.392578,115.110842 116.5,114.773926 C116.607422,114.43701 116.775878,114.129396 117.005371,113.851074 C117.234864,113.572753 117.52783,113.345704 117.884277,113.169922 C118.240724,112.99414 118.672849,112.90625 119.180664,112.90625 C119.952152,112.90625 120.633298,113.018554 121.224121,113.243164 C121.814944,113.467775 122.359373,113.736327 122.857422,114.048828 C123.150392,113.697264 123.426268,113.31885 123.685059,112.913574 C123.943849,112.508299 124.170897,112.090822 124.366211,111.661133 C124.561524,111.231443 124.715331,110.799319 124.827637,110.364746 C124.939942,109.930174 124.996094,109.502932 124.996094,109.083008 C124.996094,108.370114 124.927735,107.786623 124.791016,107.33252 C124.654296,106.878416 124.476075,106.524415 124.256348,106.270508 C124.03662,106.0166 123.794923,105.843262 123.53125,105.750488 C123.267577,105.657714 123.00879,105.611328 122.754883,105.611328 C122.442381,105.611328 122.146974,105.665039 121.868652,105.772461 C121.590331,105.879883 121.34131,106.028808 121.121582,106.219238 C120.901854,106.409669 120.728516,106.636717 120.601562,106.900391 C120.474609,107.164064 120.411133,107.45703 120.411133,107.779297 C120.411133,107.955079 120.550292,108.135741 120.828613,108.321289 C121.106935,108.506837 121.553708,108.697265 122.168945,108.892578 C122.188477,108.951172 122.198242,109 122.198242,109.039062 C122.198242,109.156251 122.085939,109.280761 121.861328,109.412598 C121.636718,109.544434 121.355959,109.666503 121.019043,109.778809 C120.682127,109.891114 120.313479,109.983886 119.913086,110.057129 C119.512693,110.130371 119.136721,110.166992 118.785156,110.166992 C118.707031,110.088867 118.631348,110.044922 118.558105,110.035156 C118.484863,110.025391 118.418946,110.020508 118.360352,110.020508 C117.950193,109.688475 117.652345,109.329592 117.466797,108.943848 C117.281249,108.558104 117.188477,108.160158 117.188477,107.75 C117.188477,107.203122 117.342284,106.658694 117.649902,106.116699 C117.957521,105.574704 118.377439,105.088869 118.909668,104.65918 C119.441897,104.22949 120.066891,103.882814 120.784668,103.619141 C121.502445,103.355467 122.266598,103.223633 123.077148,103.223633 C123.291993,103.223633 123.577635,103.245605 123.934082,103.289551 C124.290529,103.333496 124.676267,103.423827 125.091309,103.560547 C125.50635,103.697266 125.926267,103.885253 126.351074,104.124512 C126.775881,104.363771 127.161619,104.678709 127.508301,105.069336 C127.854982,105.459963 128.138182,105.938474 128.35791,106.504883 C128.577638,107.071292 128.6875,107.740231 128.6875,108.511719 C128.6875,108.941408 128.6167,109.446774 128.475098,110.027832 C128.333495,110.60889 128.128419,111.224118 127.859863,111.873535 C127.591307,112.522952 127.259279,113.184567 126.86377,113.858398 C126.46826,114.53223 126.021487,115.166989 125.523438,115.762695 C125.85547,115.928712 126.199705,116.062988 126.556152,116.165527 C126.912599,116.268067 127.305662,116.319336 127.735352,116.319336 C127.842774,116.319336 127.962402,116.243653 128.094238,116.092285 C128.226075,115.940917 128.350585,115.772462 128.467773,115.586914 C128.584962,115.401366 128.694824,115.232911 128.797363,115.081543 C128.899903,114.930175 128.975586,114.854492 129.024414,114.854492 C129.161133,114.854492 129.270996,114.908203 129.354004,115.015625 C129.437012,115.123047 129.478516,115.313475 129.478516,115.586914 C129.478516,115.948244 129.400391,116.4707 129.244141,117.154297 C129.195312,117.34961 129.126954,117.554686 129.039062,117.769531 C128.951171,117.984376 128.829102,118.182128 128.672852,118.362793 C128.516601,118.543458 128.318849,118.692382 128.07959,118.80957 C127.840331,118.926758 127.554689,118.985352 127.222656,118.985352 L127.222656,118.985352 Z M119.766602,116.202148 C120.17676,116.202148 120.669919,115.997072 121.246094,115.586914 C121.011718,115.440429 120.789552,115.323243 120.57959,115.235352 C120.369628,115.14746 120.181641,115.103516 120.015625,115.103516 C119.57617,115.103516 119.266114,115.142578 119.085449,115.220703 C118.904784,115.298829 118.814453,115.396484 118.814453,115.513672 C118.814453,115.601563 118.841308,115.68457 118.89502,115.762695 C118.948731,115.840821 119.019531,115.914062 119.107422,115.982422 C119.195313,116.050782 119.297851,116.104492 119.415039,116.143555 C119.532227,116.182617 119.649413,116.202148 119.766602,116.202148 L119.766602,116.202148 Z M139.615234,116.202148 C139.615234,116.241211 139.610352,116.338866 139.600586,116.495117 C139.59082,116.651368 139.559082,116.83203 139.505371,117.037109 C139.45166,117.242189 139.368653,117.459472 139.256348,117.688965 C139.144042,117.918458 138.985353,118.130858 138.780273,118.326172 C138.575194,118.521485 138.316408,118.682617 138.003906,118.80957 C137.691405,118.936524 137.310549,119 136.861328,119 C136.499998,119 136.172853,118.953614 135.879883,118.86084 C135.586913,118.768066 135.33545,118.626466 135.125488,118.436035 C134.915526,118.245605 134.751954,118.001466 134.634766,117.703613 C134.517578,117.40576 134.458984,117.046877 134.458984,116.626953 C134.458984,116.275389 134.510253,115.931154 134.612793,115.594238 C134.715333,115.257323 134.874022,114.957033 135.088867,114.693359 C135.303712,114.429686 135.58203,114.219727 135.923828,114.063477 C136.265627,113.907226 136.670896,113.829102 137.139648,113.829102 C137.950199,113.829102 138.565428,114.034178 138.985352,114.444336 C139.405276,114.854494 139.615234,115.440426 139.615234,116.202148 L139.615234,116.202148 Z M142.251953,106.885742 C142.251953,106.172848 142.425291,105.547854 142.771973,105.010742 C143.118654,104.47363 143.565427,104.026857 144.112305,103.67041 C144.659182,103.313963 145.276852,103.047852 145.965332,102.87207 C146.653812,102.696288 147.334958,102.608398 148.008789,102.608398 C148.575198,102.608398 149.117185,102.666992 149.634766,102.78418 C150.152346,102.901368 150.606443,103.077147 150.99707,103.311523 C151.387697,103.5459 151.700194,103.838865 151.93457,104.19043 C152.168946,104.541994 152.286133,104.952146 152.286133,105.420898 C152.286133,106.270512 152.164064,107.007809 151.919922,107.632812 C151.67578,108.257816 151.353518,108.804685 150.953125,109.273438 C150.552732,109.74219 150.086428,110.149901 149.554199,110.496582 C149.02197,110.843263 148.472659,111.158202 147.90625,111.441406 C148.33594,111.763673 148.750975,112.098143 149.151367,112.444824 C149.55176,112.791506 149.908202,113.160154 150.220703,113.550781 C150.533205,113.941408 150.782226,114.361326 150.967773,114.810547 C151.153321,115.259768 151.246094,115.748044 151.246094,116.275391 C151.246094,116.958988 151.106935,117.58154 150.828613,118.143066 C150.550292,118.704593 150.164553,119.187986 149.671387,119.593262 C149.17822,119.998537 148.59473,120.313475 147.920898,120.538086 C147.247067,120.762696 146.50977,120.875 145.708984,120.875 C145.142575,120.875 144.556644,120.816407 143.951172,120.699219 C143.3457,120.582031 142.791506,120.367189 142.288574,120.054688 C141.785642,119.742186 141.370607,119.310061 141.043457,118.758301 C140.716307,118.20654 140.552734,117.496098 140.552734,116.626953 C140.552734,115.884762 140.667479,115.22803 140.896973,114.656738 C141.126466,114.085446 141.426756,113.572756 141.797852,113.118652 C142.168947,112.664549 142.593748,112.261721 143.072266,111.910156 C143.550784,111.558592 144.03906,111.226564 144.537109,110.914062 C143.74609,110.406247 143.167482,109.793461 142.80127,109.075684 C142.435057,108.357907 142.251953,107.627933 142.251953,106.885742 L142.251953,106.885742 Z M147.393555,104.410156 C147.11035,104.410156 146.839357,104.456543 146.580566,104.549316 C146.321776,104.64209 146.097169,104.776366 145.906738,104.952148 C145.716308,105.127931 145.564942,105.340331 145.452637,105.589355 C145.340331,105.83838 145.28418,106.119139 145.28418,106.431641 C145.28418,106.685548 145.311035,106.9541 145.364746,107.237305 C145.418457,107.520509 145.499023,107.80371 145.606445,108.086914 C145.713868,108.370119 145.843261,108.645995 145.994629,108.914551 C146.145997,109.183107 146.324218,109.424804 146.529297,109.639648 C146.86133,109.434569 147.181151,109.173341 147.48877,108.855957 C147.796388,108.538573 148.072264,108.204103 148.316406,107.852539 C148.560548,107.500975 148.755859,107.149416 148.902344,106.797852 C149.048829,106.446287 149.12207,106.128908 149.12207,105.845703 C149.12207,105.601561 149.073243,105.389161 148.975586,105.208496 C148.877929,105.027831 148.748536,104.878907 148.587402,104.761719 C148.426269,104.644531 148.240724,104.556641 148.030762,104.498047 C147.8208,104.439453 147.6084,104.410156 147.393555,104.410156 L147.393555,104.410156 Z M147.496094,115.52832 C147.496094,115.030271 147.376466,114.595705 147.137207,114.224609 C146.897948,113.853514 146.607424,113.497072 146.265625,113.155273 C145.884764,113.331056 145.530763,113.521483 145.203613,113.726562 C144.876463,113.931642 144.593263,114.161132 144.354004,114.415039 C144.114745,114.668947 143.9292,114.954588 143.797363,115.271973 C143.665527,115.589357 143.599609,115.94824 143.599609,116.348633 C143.599609,116.661134 143.645996,116.934569 143.73877,117.168945 C143.831543,117.403321 143.951171,117.601073 144.097656,117.762207 C144.244141,117.923341 144.405273,118.04541 144.581055,118.128418 C144.756837,118.211426 144.927734,118.25293 145.09375,118.25293 C145.38672,118.25293 145.677245,118.196778 145.965332,118.084473 C146.253419,117.972167 146.512206,117.801271 146.741699,117.571777 C146.971193,117.342284 147.154296,117.059084 147.291016,116.722168 C147.427735,116.385252 147.496094,115.987307 147.496094,115.52832 L147.496094,115.52832 Z M167.769531,116.260742 C167.769531,116.133788 167.779297,115.953126 167.798828,115.71875 C167.818359,115.484374 167.847656,115.215822 167.886719,114.913086 C167.925781,114.61035 167.969726,114.290529 168.018555,113.953613 C168.067383,113.616698 168.116211,113.282228 168.165039,112.950195 C168.272461,112.168941 168.404296,111.329106 168.560547,110.430664 L168.34082,110.430664 C168.223632,110.577149 168.089356,110.796874 167.937988,111.089844 C167.78662,111.382814 167.57422,111.812497 167.300781,112.378906 C167.027342,112.945315 166.678225,113.680171 166.253418,114.583496 C165.828611,115.486821 165.2793,116.617181 164.605469,117.974609 C164.410155,118.375002 164.183107,118.645995 163.924316,118.787598 C163.665526,118.9292 163.379884,119 163.067383,119 C162.66699,119 162.344728,118.914552 162.100586,118.743652 C161.856444,118.572753 161.668458,118.343263 161.536621,118.055176 C161.404784,117.767088 161.316895,117.439943 161.272949,117.07373 C161.229004,116.707518 161.207031,116.329104 161.207031,115.938477 C161.207031,115.538084 161.231445,115.064456 161.280273,114.517578 C161.329102,113.9707 161.392578,113.394534 161.470703,112.789062 C161.548829,112.183591 161.63916,111.565921 161.741699,110.936035 C161.844239,110.306149 161.95166,109.703128 162.063965,109.126953 C162.17627,108.550778 162.291015,108.02344 162.408203,107.544922 C162.525391,107.066404 162.632812,106.675783 162.730469,106.373047 C162.828125,106.060545 162.920898,105.811524 163.008789,105.625977 C163.09668,105.440429 163.196777,105.296387 163.309082,105.193848 C163.421387,105.091308 163.555663,105.022949 163.711914,104.98877 C163.868165,104.95459 164.068358,104.9375 164.3125,104.9375 C164.683596,104.9375 164.97412,104.949707 165.184082,104.974121 C165.394044,104.998535 165.550292,105.057128 165.652832,105.149902 C165.755372,105.242676 165.816406,105.376952 165.835938,105.552734 C165.855469,105.728517 165.865234,105.967772 165.865234,106.270508 C165.865234,106.436524 165.85791,106.626952 165.843262,106.841797 C165.828613,107.056642 165.806641,107.286132 165.777344,107.530273 C165.748047,107.774415 165.716309,108.025878 165.682129,108.284668 C165.647949,108.543458 165.611328,108.794921 165.572266,109.039062 C165.484375,109.615237 165.391602,110.210934 165.293945,110.826172 L165.455078,111.001953 C165.474609,110.972656 165.579589,110.787111 165.77002,110.445312 C165.96045,110.103514 166.194823,109.693362 166.473145,109.214844 C166.751466,108.736326 167.051756,108.235842 167.374023,107.713379 C167.696291,107.190915 168.003905,106.729494 168.296875,106.329102 C168.58008,105.928709 168.88037,105.596681 169.197754,105.333008 C169.515138,105.069335 169.893552,104.9375 170.333008,104.9375 C170.743166,104.9375 171.094725,105.057128 171.387695,105.296387 C171.680666,105.535646 171.827148,105.874998 171.827148,106.314453 C171.827148,106.695314 171.802735,107.056639 171.753906,107.398438 C171.705078,107.740236 171.644043,108.072264 171.570801,108.394531 C171.497558,108.716798 171.421875,109.031737 171.34375,109.339355 C171.265625,109.646974 171.192383,109.961912 171.124023,110.28418 C171.075195,110.50879 171.045898,110.65039 171.036133,110.708984 C171.026367,110.767578 171.021484,110.806641 171.021484,110.826172 L171.182617,111.001953 C171.202149,110.972656 171.314452,110.789552 171.519531,110.452637 C171.72461,110.115721 171.976073,109.70801 172.273926,109.229492 C172.571779,108.750974 172.889158,108.24805 173.226074,107.720703 C173.56299,107.193357 173.877928,106.729494 174.170898,106.329102 C174.454103,105.938475 174.737303,105.608888 175.020508,105.340332 C175.303712,105.071776 175.650389,104.9375 176.060547,104.9375 C176.519534,104.9375 176.907713,105.057128 177.225098,105.296387 C177.542482,105.535646 177.701172,105.874998 177.701172,106.314453 C177.701172,106.988285 177.666993,107.627927 177.598633,108.233398 C177.530273,108.83887 177.452149,109.434567 177.364258,110.020508 C177.276367,110.606448 177.198243,111.199704 177.129883,111.800293 C177.061523,112.400882 177.027344,113.038083 177.027344,113.711914 C177.027344,114.23926 177.095702,114.668944 177.232422,115.000977 C177.369141,115.333009 177.535155,115.499023 177.730469,115.499023 C177.935548,115.499023 178.15039,115.455079 178.375,115.367188 C178.59961,115.279296 178.8291,115.166993 179.063477,115.030273 C179.297853,114.893554 179.527343,114.734864 179.751953,114.554199 C179.976564,114.373534 180.191405,114.185548 180.396484,113.990234 C180.875002,113.541013 181.34863,113.033206 181.817383,112.466797 L182.066406,115.923828 C181.636717,116.265627 181.209475,116.619627 180.784668,116.98584 C180.359861,117.352053 179.910647,117.684081 179.437012,117.981934 C178.963377,118.279787 178.443362,118.523925 177.876953,118.714355 C177.310544,118.904786 176.670902,119 175.958008,119 C175.606444,119 175.311036,118.885255 175.071777,118.655762 C174.832518,118.426268 174.639649,118.106447 174.493164,117.696289 C174.346679,117.286131 174.2417,116.802737 174.178223,116.246094 C174.114746,115.68945 174.083008,115.083988 174.083008,114.429688 C174.083008,113.81445 174.10498,113.162601 174.148926,112.474121 C174.192871,111.785641 174.253906,111.089847 174.332031,110.386719 L174.112305,110.386719 L171.138672,117.959961 C170.884764,118.370119 170.601564,118.645995 170.289062,118.787598 C169.976561,118.9292 169.615236,119 169.205078,119 C168.892577,119 168.643556,118.914552 168.458008,118.743652 C168.27246,118.572753 168.128418,118.353029 168.025879,118.084473 C167.923339,117.815917 167.854981,117.520509 167.820801,117.198242 C167.786621,116.875975 167.769531,116.563478 167.769531,116.260742 L167.769531,116.260742 Z M189.800781,115.879883 C189.449217,116.20215 189.01221,116.546385 188.489746,116.912598 C187.967283,117.27881 187.403323,117.615721 186.797852,117.92334 C186.19238,118.230959 185.57471,118.487304 184.944824,118.692383 C184.314938,118.897462 183.7168,119 183.150391,119 C182.642576,119 182.215334,118.9292 181.868652,118.787598 C181.521971,118.645995 181.241212,118.448243 181.026367,118.194336 C180.811522,117.940428 180.657715,117.630373 180.564941,117.26416 C180.472168,116.897947 180.425781,116.495119 180.425781,116.055664 C180.425781,115.440427 180.496581,114.725102 180.638184,113.909668 C180.779786,113.094234 180.953124,112.249516 181.158203,111.375488 C181.363282,110.50146 181.580565,109.629887 181.810059,108.760742 C182.039552,107.891597 182.242187,107.090824 182.417969,106.358398 C182.486328,106.104491 182.623046,105.887208 182.828125,105.706543 C183.033204,105.525878 183.265135,105.379395 183.523926,105.26709 C183.782716,105.154785 184.051268,105.071778 184.32959,105.018066 C184.607912,104.964355 184.859374,104.9375 185.083984,104.9375 C185.494143,104.9375 185.77246,105.013183 185.918945,105.164551 C186.06543,105.315919 186.138672,105.518553 186.138672,105.772461 C186.138672,105.987306 186.089844,106.297361 185.992188,106.702637 C185.894531,107.107912 185.772462,107.566892 185.625977,108.07959 C185.479491,108.592288 185.323243,109.14404 185.157227,109.734863 C184.99121,110.325687 184.834962,110.916501 184.688477,111.507324 C184.541991,112.098147 184.419922,112.674314 184.322266,113.23584 C184.224609,113.797366 184.175781,114.302732 184.175781,114.751953 C184.175781,115.191408 184.224609,115.540526 184.322266,115.799316 C184.419922,116.058107 184.620116,116.1875 184.922852,116.1875 C185.274416,116.1875 185.665037,116.065431 186.094727,115.821289 C186.524416,115.577147 186.958982,115.28174 187.398438,114.935059 C187.837893,114.588377 188.267576,114.229494 188.6875,113.858398 C189.107424,113.487303 189.478514,113.169923 189.800781,112.90625 L189.800781,115.879883 Z M183.25293,100.821289 C183.25293,100.596679 183.301757,100.342775 183.399414,100.05957 C183.497071,99.7763658 183.655761,99.5102552 183.875488,99.2612305 C184.095216,99.0122058 184.388182,98.8022469 184.754395,98.6313477 C185.120607,98.4604484 185.577146,98.375 186.124023,98.375 C186.465822,98.375 186.788084,98.4140621 187.09082,98.4921875 C187.393556,98.5703129 187.657225,98.6899406 187.881836,98.8510742 C188.106446,99.0122078 188.284667,99.2246081 188.416504,99.4882812 C188.548341,99.7519544 188.614258,100.064451 188.614258,100.425781 C188.614258,100.757814 188.560547,101.080077 188.453125,101.392578 C188.345703,101.70508 188.174806,101.983397 187.94043,102.227539 C187.706054,102.471681 187.410646,102.669433 187.054199,102.820801 C186.697752,102.972169 186.27051,103.047852 185.772461,103.047852 C184.913082,103.047852 184.278322,102.845217 183.868164,102.439941 C183.458006,102.034666 183.25293,101.495121 183.25293,100.821289 L183.25293,100.821289 Z M192.027344,119 C191.499997,119 191.00928,118.768069 190.555176,118.304199 C190.101072,117.84033 189.705568,117.217777 189.368652,116.436523 C189.031737,115.65527 188.768067,114.749517 188.577637,113.719238 C188.387206,112.68896 188.291992,111.607428 188.291992,110.474609 C188.291992,109.605464 188.355468,108.66065 188.482422,107.640137 C188.609376,106.619624 188.794921,105.567388 189.039062,104.483398 C189.283204,103.399409 189.573729,102.310552 189.910645,101.216797 C190.24756,100.123041 190.628416,99.0732472 191.053223,98.0673828 C191.478029,97.0615184 191.939451,96.1215864 192.4375,95.2475586 C192.935549,94.3735308 193.458005,93.6118197 194.004883,92.9624023 C194.551761,92.312985 195.123044,91.8027362 195.71875,91.4316406 C196.314456,91.060545 196.919919,90.875 197.535156,90.875 C197.95508,90.875 198.301756,90.9702139 198.575195,91.1606445 C198.848634,91.3510752 199.063476,91.6025375 199.219727,91.9150391 C199.375977,92.2275406 199.48584,92.581541 199.549316,92.9770508 C199.612793,93.3725606 199.644531,93.7753886 199.644531,94.1855469 C199.644531,95.1035202 199.539552,96.0385695 199.32959,96.9907227 C199.119628,97.9428759 198.836428,98.8998975 198.47998,99.8618164 C198.123533,100.823735 197.71094,101.788081 197.242188,102.754883 C196.773435,103.721685 196.285159,104.681148 195.777344,105.633301 C195.269529,106.585454 194.75928,107.522945 194.246582,108.445801 C193.733884,109.368657 193.252932,110.269527 192.803711,111.148438 C192.754883,111.246094 192.703614,111.373046 192.649902,111.529297 C192.596191,111.685548 192.544922,111.854003 192.496094,112.034668 C192.447265,112.215333 192.398438,112.408202 192.349609,112.613281 C192.300781,112.81836 192.261719,113.018554 192.232422,113.213867 L192.232422,113.418945 C192.232422,113.672853 192.259277,113.919432 192.312988,114.158691 C192.366699,114.39795 192.432617,114.612792 192.510742,114.803223 C192.588868,114.993653 192.671875,115.145019 192.759766,115.257324 C192.847657,115.369629 192.930664,115.425781 193.008789,115.425781 C193.194337,115.425781 193.406737,115.386719 193.645996,115.308594 C193.885255,115.230468 194.139159,115.125489 194.407715,114.993652 C194.676271,114.861816 194.952147,114.71045 195.235352,114.539551 C195.518556,114.368651 195.791991,114.195313 196.055664,114.019531 C196.670902,113.609373 197.315426,113.135745 197.989258,112.598633 L199.19043,115.674805 C198.321285,116.299808 197.461918,116.856443 196.612305,117.344727 C196.241209,117.549806 195.857912,117.75244 195.462402,117.952637 C195.066893,118.152833 194.668947,118.331054 194.268555,118.487305 C193.868162,118.643555 193.477541,118.768066 193.09668,118.86084 C192.715818,118.953614 192.359377,119 192.027344,119 L192.027344,119 Z M192.041992,107.28125 C192.481448,106.499996 192.947751,105.621099 193.440918,104.644531 C193.934084,103.667964 194.400388,102.662115 194.839844,101.626953 C195.279299,100.591792 195.660155,99.5590872 195.982422,98.5288086 C196.304689,97.49853 196.509765,96.5390669 196.597656,95.6503906 C196.597656,95.3671861 196.590332,95.1254893 196.575684,94.925293 C196.561035,94.7250967 196.514649,94.625 196.436523,94.625 C196.153319,94.625 195.848146,94.8081036 195.520996,95.1743164 C195.193846,95.5405292 194.866701,96.0361297 194.539551,96.6611328 C194.212401,97.2861359 193.899904,98.0136677 193.602051,98.84375 C193.304198,99.6738323 193.038087,100.557613 192.803711,101.495117 C192.569335,102.432622 192.38379,103.396968 192.24707,104.388184 C192.110351,105.379399 192.041992,106.343745 192.041992,107.28125 L192.041992,107.28125 Z M200.450195,119 C199.922849,119 199.432131,118.768069 198.978027,118.304199 C198.523924,117.84033 198.12842,117.217777 197.791504,116.436523 C197.454588,115.65527 197.190919,114.749517 197.000488,113.719238 C196.810058,112.68896 196.714844,111.607428 196.714844,110.474609 C196.714844,109.605464 196.77832,108.66065 196.905273,107.640137 C197.032227,106.619624 197.217772,105.567388 197.461914,104.483398 C197.706056,103.399409 197.99658,102.310552 198.333496,101.216797 C198.670412,100.123041 199.051267,99.0732472 199.476074,98.0673828 C199.900881,97.0615184 200.362302,96.1215864 200.860352,95.2475586 C201.358401,94.3735308 201.880857,93.6118197 202.427734,92.9624023 C202.974612,92.312985 203.545895,91.8027362 204.141602,91.4316406 C204.737308,91.060545 205.34277,90.875 205.958008,90.875 C206.377932,90.875 206.724608,90.9702139 206.998047,91.1606445 C207.271486,91.3510752 207.486327,91.6025375 207.642578,91.9150391 C207.798829,92.2275406 207.908691,92.581541 207.972168,92.9770508 C208.035645,93.3725606 208.067383,93.7753886 208.067383,94.1855469 C208.067383,95.1035202 207.962403,96.0385695 207.752441,96.9907227 C207.542479,97.9428759 207.259279,98.8998975 206.902832,99.8618164 C206.546385,100.823735 206.133791,101.788081 205.665039,102.754883 C205.196287,103.721685 204.70801,104.681148 204.200195,105.633301 C203.69238,106.585454 203.182131,107.522945 202.669434,108.445801 C202.156736,109.368657 201.675783,110.269527 201.226562,111.148438 C201.177734,111.246094 201.126465,111.373046 201.072754,111.529297 C201.019043,111.685548 200.967774,111.854003 200.918945,112.034668 C200.870117,112.215333 200.821289,112.408202 200.772461,112.613281 C200.723633,112.81836 200.68457,113.018554 200.655273,113.213867 L200.655273,113.418945 C200.655273,113.672853 200.682129,113.919432 200.73584,114.158691 C200.789551,114.39795 200.855468,114.612792 200.933594,114.803223 C201.011719,114.993653 201.094726,115.145019 201.182617,115.257324 C201.270508,115.369629 201.353515,115.425781 201.431641,115.425781 C201.617188,115.425781 201.829589,115.386719 202.068848,115.308594 C202.308107,115.230468 202.56201,115.125489 202.830566,114.993652 C203.099122,114.861816 203.374999,114.71045 203.658203,114.539551 C203.941408,114.368651 204.214842,114.195313 204.478516,114.019531 C205.093753,113.609373 205.738278,113.135745 206.412109,112.598633 L207.613281,115.674805 C206.744136,116.299808 205.88477,116.856443 205.035156,117.344727 C204.664061,117.549806 204.280764,117.75244 203.885254,117.952637 C203.489744,118.152833 203.091799,118.331054 202.691406,118.487305 C202.291014,118.643555 201.900393,118.768066 201.519531,118.86084 C201.13867,118.953614 200.782228,119 200.450195,119 L200.450195,119 Z M200.464844,107.28125 C200.904299,106.499996 201.370603,105.621099 201.86377,104.644531 C202.356936,103.667964 202.82324,102.662115 203.262695,101.626953 C203.702151,100.591792 204.083006,99.5590872 204.405273,98.5288086 C204.727541,97.49853 204.932617,96.5390669 205.020508,95.6503906 C205.020508,95.3671861 205.013184,95.1254893 204.998535,94.925293 C204.983887,94.7250967 204.9375,94.625 204.859375,94.625 C204.57617,94.625 204.270998,94.8081036 203.943848,95.1743164 C203.616698,95.5405292 203.289552,96.0361297 202.962402,96.6611328 C202.635252,97.2861359 202.322755,98.0136677 202.024902,98.84375 C201.727049,99.6738323 201.460939,100.557613 201.226562,101.495117 C200.992186,102.432622 200.806641,103.396968 200.669922,104.388184 C200.533202,105.379399 200.464844,106.343745 200.464844,107.28125 L200.464844,107.28125 Z M214.512695,115.879883 C214.161131,116.20215 213.724124,116.546385 213.20166,116.912598 C212.679197,117.27881 212.115237,117.615721 211.509766,117.92334 C210.904294,118.230959 210.286624,118.487304 209.656738,118.692383 C209.026852,118.897462 208.428714,119 207.862305,119 C207.35449,119 206.927248,118.9292 206.580566,118.787598 C206.233885,118.645995 205.953126,118.448243 205.738281,118.194336 C205.523436,117.940428 205.369629,117.630373 205.276855,117.26416 C205.184082,116.897947 205.137695,116.495119 205.137695,116.055664 C205.137695,115.440427 205.208495,114.725102 205.350098,113.909668 C205.4917,113.094234 205.665038,112.249516 205.870117,111.375488 C206.075196,110.50146 206.292479,109.629887 206.521973,108.760742 C206.751466,107.891597 206.954101,107.090824 207.129883,106.358398 C207.198243,106.104491 207.33496,105.887208 207.540039,105.706543 C207.745118,105.525878 207.977049,105.379395 208.23584,105.26709 C208.49463,105.154785 208.763182,105.071778 209.041504,105.018066 C209.319826,104.964355 209.571288,104.9375 209.795898,104.9375 C210.206057,104.9375 210.484374,105.013183 210.630859,105.164551 C210.777344,105.315919 210.850586,105.518553 210.850586,105.772461 C210.850586,105.987306 210.801758,106.297361 210.704102,106.702637 C210.606445,107.107912 210.484376,107.566892 210.337891,108.07959 C210.191406,108.592288 210.035157,109.14404 209.869141,109.734863 C209.703124,110.325687 209.546876,110.916501 209.400391,111.507324 C209.253906,112.098147 209.131836,112.674314 209.03418,113.23584 C208.936523,113.797366 208.887695,114.302732 208.887695,114.751953 C208.887695,115.191408 208.936523,115.540526 209.03418,115.799316 C209.131836,116.058107 209.33203,116.1875 209.634766,116.1875 C209.98633,116.1875 210.376951,116.065431 210.806641,115.821289 C211.23633,115.577147 211.670896,115.28174 212.110352,114.935059 C212.549807,114.588377 212.97949,114.229494 213.399414,113.858398 C213.819338,113.487303 214.190428,113.169923 214.512695,112.90625 L214.512695,115.879883 Z M207.964844,100.821289 C207.964844,100.596679 208.013671,100.342775 208.111328,100.05957 C208.208985,99.7763658 208.367675,99.5102552 208.587402,99.2612305 C208.80713,99.0122058 209.100096,98.8022469 209.466309,98.6313477 C209.832521,98.4604484 210.28906,98.375 210.835938,98.375 C211.177736,98.375 211.499998,98.4140621 211.802734,98.4921875 C212.10547,98.5703129 212.36914,98.6899406 212.59375,98.8510742 C212.81836,99.0122078 212.996581,99.2246081 213.128418,99.4882812 C213.260255,99.7519544 213.326172,100.064451 213.326172,100.425781 C213.326172,100.757814 213.272461,101.080077 213.165039,101.392578 C213.057617,101.70508 212.88672,101.983397 212.652344,102.227539 C212.417968,102.471681 212.12256,102.669433 211.766113,102.820801 C211.409666,102.972169 210.982424,103.047852 210.484375,103.047852 C209.624996,103.047852 208.990236,102.845217 208.580078,102.439941 C208.16992,102.034666 207.964844,101.495121 207.964844,100.821289 L207.964844,100.821289 Z M222.466797,108.02832 C222.750001,108.594729 222.962402,109.192868 223.104004,109.822754 C223.245606,110.45264 223.316406,111.055661 223.316406,111.631836 C223.316406,112.208011 223.25293,112.78906 223.125977,113.375 C222.999023,113.96094 222.815919,114.527341 222.57666,115.074219 C222.337401,115.621096 222.044435,116.133787 221.697754,116.612305 C221.351072,117.090823 220.955569,117.505858 220.51123,117.857422 C220.066892,118.208986 219.581057,118.487304 219.053711,118.692383 C218.526365,118.897462 217.964847,119 217.369141,119 C216.509761,119 215.774905,118.812014 215.164551,118.436035 C214.554196,118.060057 214.053713,117.569339 213.663086,116.963867 C213.272459,116.358395 212.986817,115.674808 212.806152,114.913086 C212.625487,114.151363 212.535156,113.379887 212.535156,112.598633 C212.535156,111.524409 212.696287,110.521001 213.018555,109.588379 C213.340822,108.655757 213.802243,107.845218 214.402832,107.156738 C215.003421,106.468258 215.738277,105.926272 216.607422,105.530762 C217.476567,105.135252 218.45312,104.9375 219.537109,104.9375 C220.464848,104.9375 221.33398,105.081542 222.144531,105.369629 C222.955082,105.657716 223.714352,106.043455 224.422363,106.526855 C225.130375,107.010256 225.789548,107.56445 226.399902,108.189453 C227.010257,108.814456 227.579099,109.458981 228.106445,110.123047 L227.828125,112.188477 C227.564452,111.836912 227.20801,111.456057 226.758789,111.045898 C226.309568,110.63574 225.833499,110.235354 225.330566,109.844727 C224.827634,109.4541 224.332034,109.085451 223.84375,108.73877 C223.355466,108.392088 222.935549,108.101564 222.583984,107.867188 L222.466797,108.02832 Z M217.94043,116.1875 C218.272463,116.1875 218.594725,116.019045 218.907227,115.682129 C219.219728,115.345213 219.493163,114.920413 219.727539,114.407715 C219.961915,113.895017 220.149902,113.328616 220.291504,112.708496 C220.433106,112.088376 220.503906,111.49512 220.503906,110.928711 C220.503906,110.47949 220.469727,110.062014 220.401367,109.67627 C220.333007,109.290525 220.230469,108.956056 220.09375,108.672852 C219.957031,108.389647 219.781251,108.16504 219.566406,107.999023 C219.351561,107.833007 219.092775,107.75 218.790039,107.75 C218.389646,107.75 218.008791,107.920897 217.647461,108.262695 C217.286131,108.604494 216.968751,109.041501 216.695312,109.57373 C216.421874,110.10596 216.207032,110.694333 216.050781,111.338867 C215.89453,111.983402 215.816406,112.603513 215.816406,113.199219 C215.816406,113.609377 215.855468,113.995115 215.933594,114.356445 C216.011719,114.717775 216.133788,115.032714 216.299805,115.30127 C216.465821,115.569826 216.685546,115.784667 216.958984,115.945801 C217.232423,116.106934 217.559568,116.1875 217.94043,116.1875 L217.94043,116.1875 Z M226.260742,115.938477 C226.260742,115.293942 226.299804,114.549321 226.37793,113.70459 C226.456055,112.859859 226.55371,112.000493 226.670898,111.126465 C226.788087,110.252437 226.919921,109.41016 227.066406,108.599609 C227.212891,107.789058 227.354492,107.095706 227.491211,106.519531 C227.598633,106.07031 227.806151,105.694337 228.11377,105.391602 C228.421388,105.088866 228.838865,104.9375 229.366211,104.9375 C229.893557,104.9375 230.259765,105.098631 230.464844,105.420898 C230.669923,105.743166 230.772461,106.172849 230.772461,106.709961 C230.772461,106.856446 230.757813,107.054198 230.728516,107.303223 C230.699219,107.552247 230.662598,107.825682 230.618652,108.123535 C230.574707,108.421388 230.528321,108.729002 230.479492,109.046387 C230.430664,109.363771 230.384278,109.656737 230.340332,109.925293 C230.296386,110.193849 230.259766,110.428222 230.230469,110.628418 C230.201172,110.828614 230.186523,110.96289 230.186523,111.03125 L230.479492,111.03125 C230.538086,110.923828 230.630859,110.750489 230.757812,110.51123 C230.884766,110.271971 231.031249,109.996095 231.197266,109.683594 C231.363282,109.371092 231.541503,109.041506 231.731934,108.694824 C231.922364,108.348143 232.100585,108.016115 232.266602,107.69873 C232.432618,107.381346 232.583984,107.100587 232.720703,106.856445 C232.857423,106.612303 232.959961,106.431641 233.02832,106.314453 C233.340822,105.787107 233.697264,105.425782 234.097656,105.230469 C234.498049,105.035155 234.94238,104.9375 235.430664,104.9375 C235.918948,104.9375 236.307127,105.142576 236.595215,105.552734 C236.883302,105.962893 237.027344,106.529293 237.027344,107.251953 C237.027344,107.359376 237.005371,107.540038 236.961426,107.793945 C236.91748,108.047853 236.861328,108.350584 236.792969,108.702148 C236.724609,109.053713 236.648926,109.439451 236.565918,109.859375 C236.48291,110.279299 236.407227,110.708982 236.338867,111.148438 C236.270507,111.587893 236.214356,112.022459 236.17041,112.452148 C236.126465,112.881838 236.104492,113.277342 236.104492,113.638672 C236.104492,114.244144 236.180175,114.742186 236.331543,115.132812 C236.482911,115.523439 236.719725,115.71875 237.041992,115.71875 C237.188477,115.71875 237.356933,115.674805 237.547363,115.586914 C237.737794,115.499023 237.94287,115.384278 238.162598,115.242676 C238.382325,115.101074 238.606932,114.937501 238.836426,114.751953 C239.065919,114.566405 239.292968,114.375978 239.517578,114.180664 C240.035159,113.721677 240.577146,113.204104 241.143555,112.62793 L241.392578,115.90918 L240.660156,116.46582 C240.259764,116.768556 239.852053,117.071288 239.437012,117.374023 C239.021971,117.676759 238.589846,117.947753 238.140625,118.187012 C237.691404,118.426271 237.222659,118.621581 236.734375,118.772949 C236.246091,118.924317 235.733401,119 235.196289,119 C234.659177,119 234.207521,118.61182 233.841309,117.835449 C233.475096,117.059078 233.291992,115.923836 233.291992,114.429688 C233.291992,113.843747 233.331054,113.211429 233.40918,112.532715 C233.487305,111.854001 233.58496,111.124027 233.702148,110.342773 L233.467773,110.342773 L229.629883,117.959961 C229.434569,118.360354 229.214845,118.633788 228.970703,118.780273 C228.726561,118.926759 228.443361,119 228.121094,119 C227.720701,119 227.398439,118.914552 227.154297,118.743652 C226.910155,118.572753 226.722169,118.343263 226.590332,118.055176 C226.458495,117.767088 226.370606,117.439943 226.32666,117.07373 C226.282715,116.707518 226.260742,116.329104 226.260742,115.938477 L226.260742,115.938477 Z M253.799805,116.392578 C254.786138,116.392578 255.684566,116.294923 256.495117,116.099609 C257.305668,115.904296 258.040524,115.640627 258.699707,115.308594 C259.35889,114.976561 259.954587,114.588381 260.486816,114.144043 C261.019046,113.699705 261.499998,113.223635 261.929688,112.71582 L262.09082,116.070312 C261.778319,116.451174 261.399905,116.819822 260.955566,117.17627 C260.511228,117.532717 260.025393,117.845214 259.498047,118.11377 C258.9707,118.382326 258.416507,118.597167 257.835449,118.758301 C257.254392,118.919434 256.680667,119 256.114258,119 C256.045898,119 255.96045,118.990234 255.85791,118.970703 C255.755371,118.951172 255.57715,118.916992 255.323242,118.868164 C255.069335,118.819336 254.705569,118.753418 254.231934,118.67041 C253.758298,118.587402 253.116215,118.487305 252.305664,118.370117 L252.305664,118.633789 C252.305664,120.411142 252.15674,122.024895 251.858887,123.475098 C251.561034,124.9253 251.163088,126.163081 250.665039,127.188477 C250.16699,128.213872 249.595706,129.00488 248.951172,129.561523 C248.306637,130.118167 247.637699,130.396484 246.944336,130.396484 C246.387693,130.396484 245.92383,130.259767 245.552734,129.986328 C245.181639,129.712889 244.886232,129.344241 244.666504,128.880371 C244.446776,128.416502 244.290528,127.874515 244.197754,127.254395 C244.10498,126.634274 244.058594,125.977543 244.058594,125.28418 C244.058594,124.883787 244.12207,124.432131 244.249023,123.929199 C244.375977,123.426267 244.546874,122.898929 244.761719,122.347168 C244.976564,121.795407 245.21826,121.23389 245.486816,120.662598 C245.755372,120.091306 246.031249,119.537112 246.314453,119 C246.978519,117.749994 247.735347,116.460944 248.584961,115.132812 C248.692383,114.37109 248.802246,113.589848 248.914551,112.789062 C249.026856,111.988277 249.168456,111.211918 249.339355,110.459961 C249.510255,109.708004 249.725096,108.995121 249.983887,108.321289 C250.242677,107.647458 250.574705,107.061526 250.97998,106.563477 C251.385256,106.065427 251.871091,105.669923 252.4375,105.376953 C253.003909,105.083983 253.687496,104.9375 254.488281,104.9375 C255.083987,104.9375 255.640622,105.018066 256.158203,105.179199 C256.675784,105.340333 257.129881,105.601561 257.520508,105.962891 C257.911135,106.324221 258.218749,106.790524 258.443359,107.361816 C258.66797,107.933108 258.780273,108.633785 258.780273,109.463867 C258.780273,110.127933 258.682618,110.770016 258.487305,111.390137 C258.291991,112.010257 257.986818,112.603513 257.571777,113.169922 C257.156736,113.736331 256.629398,114.266111 255.989746,114.759277 C255.350094,115.252444 254.590825,115.694334 253.711914,116.084961 L253.799805,116.392578 Z M251.954102,114.913086 C252.540042,114.620116 253.045408,114.292971 253.470215,113.931641 C253.895022,113.570311 254.261229,113.184572 254.568848,112.774414 C254.876466,112.364256 255.127929,111.939455 255.323242,111.5 C255.518556,111.060545 255.674804,110.61133 255.791992,110.152344 C255.840821,109.937499 255.872559,109.686037 255.887207,109.397949 C255.901856,109.109862 255.872559,108.838868 255.799316,108.584961 C255.726074,108.331053 255.599122,108.11377 255.418457,107.933105 C255.237792,107.752441 254.98633,107.662109 254.664062,107.662109 C254.302733,107.662109 253.985353,107.762206 253.711914,107.962402 C253.438475,108.162599 253.201661,108.433592 253.001465,108.775391 C252.801269,109.117189 252.635255,109.522459 252.503418,109.991211 C252.371581,110.459963 252.264161,110.962888 252.181152,111.5 C252.098144,112.037112 252.039551,112.596189 252.005371,113.177246 C251.971191,113.758304 251.954102,114.336911 251.954102,114.913086 L251.954102,114.913086 Z M246.856445,125.459961 C246.856445,125.538086 246.873535,125.665038 246.907715,125.84082 C246.941895,126.016602 246.998046,126.192382 247.076172,126.368164 C247.154297,126.543946 247.256835,126.700195 247.383789,126.836914 C247.510743,126.973633 247.666991,127.041992 247.852539,127.041992 C248.018556,127.041992 248.155273,126.951661 248.262695,126.770996 C248.370118,126.590331 248.458007,126.348634 248.526367,126.045898 C248.594727,125.743163 248.643555,125.401369 248.672852,125.020508 C248.702149,124.639647 248.726562,124.249025 248.746094,123.848633 C248.765625,123.44824 248.777832,123.057619 248.782715,122.676758 C248.787598,122.295897 248.799805,121.954103 248.819336,121.651367 C248.848633,121.124021 248.870605,120.677248 248.885254,120.311035 C248.899902,119.944822 248.912109,119.63965 248.921875,119.395508 C248.931641,119.122069 248.941406,118.892579 248.951172,118.707031 C248.765624,119.029298 248.584962,119.40283 248.40918,119.827637 C248.233398,120.252444 248.067384,120.694334 247.911133,121.15332 C247.754882,121.612307 247.613282,122.071287 247.486328,122.530273 C247.359374,122.98926 247.249512,123.416502 247.156738,123.812012 C247.063964,124.207522 246.990723,124.549315 246.937012,124.837402 C246.883301,125.12549 246.856445,125.333007 246.856445,125.459961 L246.856445,125.459961 Z M265.28418,119 C264.366206,119 263.562992,118.833986 262.874512,118.501953 C262.186032,118.16992 261.612307,117.723147 261.15332,117.161621 C260.694334,116.600095 260.350099,115.950687 260.120605,115.213379 C259.891112,114.476071 259.776367,113.702152 259.776367,112.891602 C259.776367,112.344724 259.830078,111.766116 259.9375,111.155762 C260.044922,110.545407 260.208495,109.947269 260.428223,109.361328 C260.64795,108.775388 260.923826,108.216311 261.255859,107.684082 C261.587892,107.151853 261.976072,106.683107 262.42041,106.277832 C262.864748,105.872557 263.36279,105.550294 263.914551,105.311035 C264.466311,105.071776 265.079098,104.952148 265.75293,104.952148 C266.299807,104.952148 266.807615,105.040038 267.276367,105.21582 C267.74512,105.391602 268.15283,105.638182 268.499512,105.955566 C268.846193,106.272951 269.117187,106.656248 269.3125,107.105469 C269.507813,107.55469 269.605469,108.057614 269.605469,108.614258 C269.605469,109.21973 269.456544,109.825192 269.158691,110.430664 C268.860838,111.036136 268.448245,111.607419 267.920898,112.144531 C267.393552,112.681643 266.766117,113.160154 266.038574,113.580078 C265.311032,114.000002 264.522465,114.327147 263.672852,114.561523 C263.819337,114.825197 263.963378,115.044921 264.10498,115.220703 C264.246583,115.396485 264.390624,115.533203 264.537109,115.630859 C264.683594,115.728516 264.837402,115.796875 264.998535,115.835938 C265.159669,115.875 265.333007,115.894531 265.518555,115.894531 C266.104495,115.894531 266.722165,115.777345 267.371582,115.542969 C268.020999,115.308593 268.653317,115.015627 269.268555,114.664062 C269.883792,114.312498 270.464841,113.929201 271.011719,113.51416 C271.558596,113.099119 272.022459,112.706057 272.40332,112.334961 L274.292969,114.297852 C273.433589,115.186528 272.520513,115.972653 271.553711,116.65625 C271.133787,116.94922 270.682131,117.237303 270.19873,117.520508 C269.71533,117.803712 269.207522,118.055175 268.675293,118.274902 C268.143064,118.49463 267.591311,118.670409 267.02002,118.802246 C266.448728,118.934083 265.87012,119 265.28418,119 L265.28418,119 Z M263.335938,112.115234 C263.687502,112.115234 264.070799,112.024903 264.48584,111.844238 C264.900881,111.663573 265.286619,111.431642 265.643066,111.148438 C265.999514,110.865233 266.299803,110.557619 266.543945,110.225586 C266.788087,109.893553 266.910156,109.571291 266.910156,109.258789 C266.910156,108.819334 266.829591,108.458009 266.668457,108.174805 C266.507323,107.8916 266.309571,107.75 266.075195,107.75 C265.655271,107.75 265.296388,107.828124 264.998535,107.984375 C264.700682,108.140626 264.451661,108.34326 264.251465,108.592285 C264.051269,108.84131 263.890137,109.12451 263.768066,109.441895 C263.645995,109.759279 263.553223,110.0791 263.489746,110.401367 C263.426269,110.723634 263.384766,111.036131 263.365234,111.338867 C263.345703,111.641603 263.335938,111.90039 263.335938,112.115234 L263.335938,112.115234 Z M280.855469,108.02832 C281.138673,108.594729 281.351074,109.192868 281.492676,109.822754 C281.634278,110.45264 281.705078,111.055661 281.705078,111.631836 C281.705078,112.208011 281.641602,112.78906 281.514648,113.375 C281.387695,113.96094 281.204591,114.527341 280.965332,115.074219 C280.726073,115.621096 280.433107,116.133787 280.086426,116.612305 C279.739744,117.090823 279.344241,117.505858 278.899902,117.857422 C278.455564,118.208986 277.969729,118.487304 277.442383,118.692383 C276.915036,118.897462 276.353519,119 275.757812,119 C274.898433,119 274.163577,118.812014 273.553223,118.436035 C272.942868,118.060057 272.442385,117.569339 272.051758,116.963867 C271.661131,116.358395 271.375489,115.674808 271.194824,114.913086 C271.014159,114.151363 270.923828,113.379887 270.923828,112.598633 C270.923828,111.524409 271.084959,110.521001 271.407227,109.588379 C271.729494,108.655757 272.190915,107.845218 272.791504,107.156738 C273.392093,106.468258 274.126949,105.926272 274.996094,105.530762 C275.865239,105.135252 276.841791,104.9375 277.925781,104.9375 C278.85352,104.9375 279.722652,105.081542 280.533203,105.369629 C281.343754,105.657716 282.103024,106.043455 282.811035,106.526855 C283.519047,107.010256 284.17822,107.56445 284.788574,108.189453 C285.398929,108.814456 285.967771,109.458981 286.495117,110.123047 L286.216797,112.188477 C285.953124,111.836912 285.596682,111.456057 285.147461,111.045898 C284.69824,110.63574 284.22217,110.235354 283.719238,109.844727 C283.216306,109.4541 282.720706,109.085451 282.232422,108.73877 C281.744138,108.392088 281.324221,108.101564 280.972656,107.867188 L280.855469,108.02832 Z M276.329102,116.1875 C276.661134,116.1875 276.983397,116.019045 277.295898,115.682129 C277.6084,115.345213 277.881835,114.920413 278.116211,114.407715 C278.350587,113.895017 278.538574,113.328616 278.680176,112.708496 C278.821778,112.088376 278.892578,111.49512 278.892578,110.928711 C278.892578,110.47949 278.858399,110.062014 278.790039,109.67627 C278.721679,109.290525 278.619141,108.956056 278.482422,108.672852 C278.345702,108.389647 278.169923,108.16504 277.955078,107.999023 C277.740233,107.833007 277.481447,107.75 277.178711,107.75 C276.778318,107.75 276.397463,107.920897 276.036133,108.262695 C275.674803,108.604494 275.357423,109.041501 275.083984,109.57373 C274.810546,110.10596 274.595704,110.694333 274.439453,111.338867 C274.283202,111.983402 274.205078,112.603513 274.205078,113.199219 C274.205078,113.609377 274.24414,113.995115 274.322266,114.356445 C274.400391,114.717775 274.52246,115.032714 274.688477,115.30127 C274.854493,115.569826 275.074217,115.784667 275.347656,115.945801 C275.621095,116.106934 275.94824,116.1875 276.329102,116.1875 L276.329102,116.1875 Z M290.625977,116.392578 C291.61231,116.392578 292.510738,116.294923 293.321289,116.099609 C294.13184,115.904296 294.866696,115.640627 295.525879,115.308594 C296.185062,114.976561 296.780759,114.588381 297.312988,114.144043 C297.845218,113.699705 298.32617,113.223635 298.755859,112.71582 L298.916992,116.070312 C298.604491,116.451174 298.226076,116.819822 297.781738,117.17627 C297.3374,117.532717 296.851565,117.845214 296.324219,118.11377 C295.796872,118.382326 295.242679,118.597167 294.661621,118.758301 C294.080564,118.919434 293.506839,119 292.94043,119 C292.87207,119 292.786622,118.990234 292.684082,118.970703 C292.581542,118.951172 292.403322,118.916992 292.149414,118.868164 C291.895507,118.819336 291.531741,118.753418 291.058105,118.67041 C290.58447,118.587402 289.942387,118.487305 289.131836,118.370117 L289.131836,118.633789 C289.131836,120.411142 288.982912,122.024895 288.685059,123.475098 C288.387206,124.9253 287.98926,126.163081 287.491211,127.188477 C286.993162,128.213872 286.421878,129.00488 285.777344,129.561523 C285.132809,130.118167 284.463871,130.396484 283.770508,130.396484 C283.213864,130.396484 282.750002,130.259767 282.378906,129.986328 C282.007811,129.712889 281.712403,129.344241 281.492676,128.880371 C281.272948,128.416502 281.1167,127.874515 281.023926,127.254395 C280.931152,126.634274 280.884766,125.977543 280.884766,125.28418 C280.884766,124.883787 280.948242,124.432131 281.075195,123.929199 C281.202149,123.426267 281.373046,122.898929 281.587891,122.347168 C281.802735,121.795407 282.044432,121.23389 282.312988,120.662598 C282.581544,120.091306 282.85742,119.537112 283.140625,119 C283.804691,117.749994 284.561519,116.460944 285.411133,115.132812 C285.518555,114.37109 285.628417,113.589848 285.740723,112.789062 C285.853028,111.988277 285.994628,111.211918 286.165527,110.459961 C286.336427,109.708004 286.551268,108.995121 286.810059,108.321289 C287.068849,107.647458 287.400877,107.061526 287.806152,106.563477 C288.211428,106.065427 288.697263,105.669923 289.263672,105.376953 C289.830081,105.083983 290.513668,104.9375 291.314453,104.9375 C291.910159,104.9375 292.466794,105.018066 292.984375,105.179199 C293.501956,105.340333 293.956053,105.601561 294.34668,105.962891 C294.737307,106.324221 295.044921,106.790524 295.269531,107.361816 C295.494142,107.933108 295.606445,108.633785 295.606445,109.463867 C295.606445,110.127933 295.50879,110.770016 295.313477,111.390137 C295.118163,112.010257 294.81299,112.603513 294.397949,113.169922 C293.982908,113.736331 293.45557,114.266111 292.815918,114.759277 C292.176266,115.252444 291.416997,115.694334 290.538086,116.084961 L290.625977,116.392578 Z M288.780273,114.913086 C289.366214,114.620116 289.87158,114.292971 290.296387,113.931641 C290.721194,113.570311 291.087401,113.184572 291.39502,112.774414 C291.702638,112.364256 291.954101,111.939455 292.149414,111.5 C292.344728,111.060545 292.500976,110.61133 292.618164,110.152344 C292.666992,109.937499 292.69873,109.686037 292.713379,109.397949 C292.728027,109.109862 292.698731,108.838868 292.625488,108.584961 C292.552246,108.331053 292.425294,108.11377 292.244629,107.933105 C292.063964,107.752441 291.812502,107.662109 291.490234,107.662109 C291.128904,107.662109 290.811525,107.762206 290.538086,107.962402 C290.264647,108.162599 290.027833,108.433592 289.827637,108.775391 C289.62744,109.117189 289.461426,109.522459 289.32959,109.991211 C289.197753,110.459963 289.090332,110.962888 289.007324,111.5 C288.924316,112.037112 288.865723,112.596189 288.831543,113.177246 C288.797363,113.758304 288.780273,114.336911 288.780273,114.913086 L288.780273,114.913086 Z M283.682617,125.459961 C283.682617,125.538086 283.699707,125.665038 283.733887,125.84082 C283.768067,126.016602 283.824218,126.192382 283.902344,126.368164 C283.980469,126.543946 284.083007,126.700195 284.209961,126.836914 C284.336915,126.973633 284.493163,127.041992 284.678711,127.041992 C284.844727,127.041992 284.981445,126.951661 285.088867,126.770996 C285.19629,126.590331 285.284179,126.348634 285.352539,126.045898 C285.420899,125.743163 285.469726,125.401369 285.499023,125.020508 C285.52832,124.639647 285.552734,124.249025 285.572266,123.848633 C285.591797,123.44824 285.604004,123.057619 285.608887,122.676758 C285.61377,122.295897 285.625976,121.954103 285.645508,121.651367 C285.674805,121.124021 285.696777,120.677248 285.711426,120.311035 C285.726074,119.944822 285.738281,119.63965 285.748047,119.395508 C285.757813,119.122069 285.767578,118.892579 285.777344,118.707031 C285.591796,119.029298 285.411134,119.40283 285.235352,119.827637 C285.059569,120.252444 284.893555,120.694334 284.737305,121.15332 C284.581054,121.612307 284.439454,122.071287 284.3125,122.530273 C284.185546,122.98926 284.075684,123.416502 283.98291,123.812012 C283.890136,124.207522 283.816895,124.549315 283.763184,124.837402 C283.709472,125.12549 283.682617,125.333007 283.682617,125.459961 L283.682617,125.459961 Z M300.425781,119 C299.898435,119 299.407717,118.768069 298.953613,118.304199 C298.499509,117.84033 298.104006,117.217777 297.76709,116.436523 C297.430174,115.65527 297.166505,114.749517 296.976074,113.719238 C296.785644,112.68896 296.69043,111.607428 296.69043,110.474609 C296.69043,109.605464 296.753906,108.66065 296.880859,107.640137 C297.007813,106.619624 297.193358,105.567388 297.4375,104.483398 C297.681642,103.399409 297.972166,102.310552 298.309082,101.216797 C298.645998,100.123041 299.026853,99.0732472 299.45166,98.0673828 C299.876467,97.0615184 300.337888,96.1215864 300.835938,95.2475586 C301.333987,94.3735308 301.856443,93.6118197 302.40332,92.9624023 C302.950198,92.312985 303.521481,91.8027362 304.117188,91.4316406 C304.712894,91.060545 305.318356,90.875 305.933594,90.875 C306.353518,90.875 306.700194,90.9702139 306.973633,91.1606445 C307.247072,91.3510752 307.461913,91.6025375 307.618164,91.9150391 C307.774415,92.2275406 307.884277,92.581541 307.947754,92.9770508 C308.011231,93.3725606 308.042969,93.7753886 308.042969,94.1855469 C308.042969,95.1035202 307.937989,96.0385695 307.728027,96.9907227 C307.518065,97.9428759 307.234865,98.8998975 306.878418,99.8618164 C306.521971,100.823735 306.109377,101.788081 305.640625,102.754883 C305.171873,103.721685 304.683596,104.681148 304.175781,105.633301 C303.667966,106.585454 303.157717,107.522945 302.64502,108.445801 C302.132322,109.368657 301.651369,110.269527 301.202148,111.148438 C301.15332,111.246094 301.102051,111.373046 301.04834,111.529297 C300.994629,111.685548 300.94336,111.854003 300.894531,112.034668 C300.845703,112.215333 300.796875,112.408202 300.748047,112.613281 C300.699219,112.81836 300.660156,113.018554 300.630859,113.213867 L300.630859,113.418945 C300.630859,113.672853 300.657715,113.919432 300.711426,114.158691 C300.765137,114.39795 300.831054,114.612792 300.90918,114.803223 C300.987305,114.993653 301.070312,115.145019 301.158203,115.257324 C301.246094,115.369629 301.329101,115.425781 301.407227,115.425781 C301.592774,115.425781 301.805175,115.386719 302.044434,115.308594 C302.283693,115.230468 302.537596,115.125489 302.806152,114.993652 C303.074708,114.861816 303.350585,114.71045 303.633789,114.539551 C303.916994,114.368651 304.190428,114.195313 304.454102,114.019531 C305.069339,113.609373 305.713864,113.135745 306.387695,112.598633 L307.588867,115.674805 C306.719722,116.299808 305.860356,116.856443 305.010742,117.344727 C304.639647,117.549806 304.25635,117.75244 303.86084,117.952637 C303.46533,118.152833 303.067385,118.331054 302.666992,118.487305 C302.2666,118.643555 301.875978,118.768066 301.495117,118.86084 C301.114256,118.953614 300.757814,119 300.425781,119 L300.425781,119 Z M300.44043,107.28125 C300.879885,106.499996 301.346189,105.621099 301.839355,104.644531 C302.332522,103.667964 302.798826,102.662115 303.238281,101.626953 C303.677737,100.591792 304.058592,99.5590872 304.380859,98.5288086 C304.703127,97.49853 304.908203,96.5390669 304.996094,95.6503906 C304.996094,95.3671861 304.98877,95.1254893 304.974121,94.925293 C304.959473,94.7250967 304.913086,94.625 304.834961,94.625 C304.551756,94.625 304.246584,94.8081036 303.919434,95.1743164 C303.592284,95.5405292 303.265138,96.0361297 302.937988,96.6611328 C302.610838,97.2861359 302.298341,98.0136677 302.000488,98.84375 C301.702635,99.6738323 301.436525,100.557613 301.202148,101.495117 C300.967772,102.432622 300.782227,103.396968 300.645508,104.388184 C300.508788,105.379399 300.44043,106.343745 300.44043,107.28125 L300.44043,107.28125 Z M310.533203,119 C309.61523,119 308.812015,118.833986 308.123535,118.501953 C307.435055,118.16992 306.86133,117.723147 306.402344,117.161621 C305.943357,116.600095 305.599122,115.950687 305.369629,115.213379 C305.140136,114.476071 305.025391,113.702152 305.025391,112.891602 C305.025391,112.344724 305.079101,111.766116 305.186523,111.155762 C305.293946,110.545407 305.457518,109.947269 305.677246,109.361328 C305.896974,108.775388 306.17285,108.216311 306.504883,107.684082 C306.836916,107.151853 307.225095,106.683107 307.669434,106.277832 C308.113772,105.872557 308.611814,105.550294 309.163574,105.311035 C309.715335,105.071776 310.328122,104.952148 311.001953,104.952148 C311.548831,104.952148 312.056638,105.040038 312.525391,105.21582 C312.994143,105.391602 313.401854,105.638182 313.748535,105.955566 C314.095217,106.272951 314.36621,106.656248 314.561523,107.105469 C314.756837,107.55469 314.854492,108.057614 314.854492,108.614258 C314.854492,109.21973 314.705568,109.825192 314.407715,110.430664 C314.109862,111.036136 313.697268,111.607419 313.169922,112.144531 C312.642575,112.681643 312.01514,113.160154 311.287598,113.580078 C310.560055,114.000002 309.771489,114.327147 308.921875,114.561523 C309.06836,114.825197 309.212402,115.044921 309.354004,115.220703 C309.495606,115.396485 309.639648,115.533203 309.786133,115.630859 C309.932618,115.728516 310.086425,115.796875 310.247559,115.835938 C310.408692,115.875 310.58203,115.894531 310.767578,115.894531 C311.353519,115.894531 311.971188,115.777345 312.620605,115.542969 C313.270023,115.308593 313.902341,115.015627 314.517578,114.664062 C315.132816,114.312498 315.713864,113.929201 316.260742,113.51416 C316.80762,113.099119 317.271482,112.706057 317.652344,112.334961 L319.541992,114.297852 C318.682613,115.186528 317.769536,115.972653 316.802734,116.65625 C316.38281,116.94922 315.931155,117.237303 315.447754,117.520508 C314.964353,117.803712 314.456546,118.055175 313.924316,118.274902 C313.392087,118.49463 312.840335,118.670409 312.269043,118.802246 C311.697751,118.934083 311.119144,119 310.533203,119 L310.533203,119 Z M308.584961,112.115234 C308.936525,112.115234 309.319822,112.024903 309.734863,111.844238 C310.149904,111.663573 310.535643,111.431642 310.89209,111.148438 C311.248537,110.865233 311.548827,110.557619 311.792969,110.225586 C312.037111,109.893553 312.15918,109.571291 312.15918,109.258789 C312.15918,108.819334 312.078614,108.458009 311.91748,108.174805 C311.756347,107.8916 311.558595,107.75 311.324219,107.75 C310.904295,107.75 310.545412,107.828124 310.247559,107.984375 C309.949706,108.140626 309.700685,108.34326 309.500488,108.592285 C309.300292,108.84131 309.139161,109.12451 309.01709,109.441895 C308.895019,109.759279 308.802246,110.0791 308.73877,110.401367 C308.675293,110.723634 308.633789,111.036131 308.614258,111.338867 C308.594726,111.641603 308.584961,111.90039 308.584961,112.115234 L308.584961,112.115234 Z" id="or-2.8-million-peopl" fill="#DDDDDD"></path>
            <path d="M199.5,571 C309.680808,571 399,481.680808 399,371.5 C399,261.319192 309.680808,172 199.5,172 C196.088619,172 192.697237,172.085624 189.327886,172.254839 C83.8738754,177.550939 0,264.730573 0,371.5 C0,481.680808 89.3191924,571 199.5,571 Z" id="Oval-309-Copy-2" fill="#FFFFFF"></path>
            <g id="Line" transform="translate(0.000000, 172.000000)">
                <mask id="mask-2" fill="white">
                    <use xlink:href="#path-1"></use>
                </mask>
                <use id="Mask" xlink:href="#path-1"></use>
                <path d="M199.5,-133.5 L199.5,199 L446.918446,-23.3453471" fill="#FE8402" mask="url(#mask-2)"></path>
            </g>
        </g>
    </g>
</svg>