<?xml version="1.0" encoding="UTF-8" standalone="no"?>
<svg width="143px" height="27px" viewBox="0 0 143 27" version="1.1" xmlns="http://www.w3.org/2000/svg" xmlns:xlink="http://www.w3.org/1999/xlink">
    <!-- Generator: Sketch 3.6 (26304) - http://www.bohemiancoding.com/sketch -->
    <title>Group 3</title>
    <desc>Created with Sketch.</desc>
    <defs></defs>
    <g id="Page-1" stroke="none" stroke-width="1" fill="none" fill-rule="evenodd">
        <g id="Group-3" fill="#FFFFFF">
            <path d="M80.9288671,8.97591849 C80.9401581,9.2352578 80.9476854,9.49830195 80.9476854,9.76134609 C80.9476854,17.7675208 74.7564923,27 63.4354535,27 C59.9578472,27 56.721114,25.9959864 54,24.2769373 C54.4817463,24.33251 54.9710199,24.3621488 55.4678209,24.3621488 C58.3507715,24.3621488 61.00414,23.3914789 63.1117802,21.7687558 C60.4170117,21.7205928 58.1437712,19.9682001 57.3609334,17.5600494 C57.7372977,17.6304415 58.1211893,17.66749 58.5201355,17.66749 C59.0809183,17.66749 59.622883,17.593393 60.1422657,17.4563137 C57.3270606,16.9005866 55.2043658,14.4516826 55.2043658,11.5137388 L55.2043658,11.4396419 C56.0323673,11.8916332 56.9845691,12.1657919 57.9932254,12.1954307 C56.3409861,11.1099105 55.2532932,9.25748688 55.2532932,7.15313368 C55.2532932,6.04167953 55.5581483,5.00061747 56.088822,4.10774931 C59.1223184,7.77184316 63.6575085,10.1836987 68.7722996,10.4393331 C68.6706812,9.99475147 68.6142266,9.53164557 68.6142266,9.05742513 C68.6142266,5.71194813 71.3692134,3 74.7715469,3 C76.5404592,3 78.1400075,3.73355974 79.2615732,4.91170114 C80.6654121,4.6412473 81.9826872,4.13738808 83.1719985,3.44087681 C82.712834,4.85612843 81.7342868,6.04538438 80.465939,6.79376351 C81.7117049,6.64556962 82.8972525,6.32324792 84,5.83791294 C83.1757621,7.05310281 82.133233,8.1200988 80.9288671,8.97591849" id="Path"></path>
            <path d="M4.13832138,27 L4.13832138,14.6839847 L1.96601644e-13,14.6839847 L1.96601644e-13,9.88417541 L4.13832138,9.88417541 L4.13832138,6.34449476 C4.13832138,2.23677312 6.64330149,4.26325641e-14 10.3021382,4.26325641e-14 C12.0548152,4.26325641e-14 13.5610871,0.130600572 14,0.188989514 L14,4.48188751 L11.4624197,4.48307912 C9.47261787,4.48307912 9.08724547,5.43005243 9.08724547,6.81970925 L9.08724547,9.88417541 L13.8329537,9.88417541 L13.2150967,14.6839847 L9.08724547,14.6839847 L9.08724547,27 L4.13832138,27 Z" id="fb"></path>
            <path d="M143,11.9375 L143,22.5714286 C143,23.1607172 142.790181,23.6651765 142.370536,24.0848214 C141.950891,24.5044664 141.446432,24.7142857 140.857143,24.7142857 L121.142857,24.7142857 C120.553568,24.7142857 120.049109,24.5044664 119.629464,24.0848214 C119.209819,23.6651765 119,23.1607172 119,22.5714286 L119,11.9375 C119.392859,12.3750022 119.843747,12.7633912 120.352679,13.1026786 C123.584838,15.2991181 125.803565,16.8392813 127.008929,17.7232143 C127.51786,18.0982162 127.930802,18.390624 128.247768,18.6004464 C128.564734,18.8102689 128.986605,19.0245525 129.513393,19.2433036 C130.040181,19.4620547 130.531248,19.5714286 130.986607,19.5714286 L131,19.5714286 L131.013393,19.5714286 C131.468752,19.5714286 131.959819,19.4620547 132.486607,19.2433036 C133.013395,19.0245525 133.435266,18.8102689 133.752232,18.6004464 C134.069198,18.390624 134.48214,18.0982162 134.991071,17.7232143 C136.508936,16.6249945 138.732128,15.0848313 141.660714,13.1026786 C142.169645,12.7544625 142.61607,12.3660736 143,11.9375 L143,11.9375 Z M143,8 C143,8.70536067 142.781252,9.37946107 142.34375,10.0223214 C141.906248,10.6651818 141.36161,11.2142834 140.709821,11.6696429 C137.352662,14.0000117 135.263397,15.45089 134.441964,16.0223214 C134.352678,16.0848217 134.162948,16.2209811 133.872768,16.4308036 C133.582588,16.640626 133.341519,16.8102672 133.149554,16.9397321 C132.957588,17.0691971 132.725448,17.2142849 132.453125,17.375 C132.180802,17.5357151 131.924108,17.6562496 131.683036,17.7366071 C131.441963,17.8169647 131.218751,17.8571429 131.013393,17.8571429 L131,17.8571429 L130.986607,17.8571429 C130.781249,17.8571429 130.558037,17.8169647 130.316964,17.7366071 C130.075892,17.6562496 129.819198,17.5357151 129.546875,17.375 C129.274552,17.2142849 129.042412,17.0691971 128.850446,16.9397321 C128.658481,16.8102672 128.417412,16.640626 128.127232,16.4308036 C127.837052,16.2209811 127.647322,16.0848217 127.558036,16.0223214 C126.745532,15.45089 125.5759,14.636166 124.049107,13.578125 C122.522314,12.520084 121.607144,11.8839296 121.303571,11.6696429 C120.749997,11.294641 120.227681,10.7790211 119.736607,10.1227679 C119.245533,9.46651458 119,8.85714567 119,8.29464286 C119,7.5982108 119.185266,7.01785946 119.555804,6.55357143 C119.926341,6.08928339 120.455354,5.85714286 121.142857,5.85714286 L140.857143,5.85714286 C141.437503,5.85714286 141.93973,6.06696219 142.363839,6.48660714 C142.787949,6.9062521 143,7.41071134 143,8 L143,8 Z" id=""></path>
        </g>
    </g>
</svg>