<?xml version="1.0" encoding="UTF-8" standalone="no"?>
<svg width="143px" height="27px" viewBox="0 0 143 27" version="1.1" xmlns="http://www.w3.org/2000/svg" xmlns:xlink="http://www.w3.org/1999/xlink">
    <!-- Generator: Sketch 3.6 (26304) - http://www.bohemiancoding.com/sketch -->
    <title>Group 3</title>
    <desc>Created with Sketch.</desc>
    <defs></defs>
    <g id="Page-1" stroke="none" stroke-width="1" fill="none" fill-rule="evenodd">
        <g id="Larger-Screens-Payoff" transform="translate(-526.000000, -939.000000)" fill="#FFFFFF">
            <g id="Group" transform="translate(250.000000, 858.000000)">
                <g id="Share" transform="translate(212.000000, 18.000000)">
                    <g id="Group-3" transform="translate(64.000000, 63.000000)">
                        <path d="M80.9288671,8.97591849 C80.9401581,9.2352578 80.9476854,9.49830195 80.9476854,9.76134609 C80.9476854,17.7675208 74.7564923,27 63.4354535,27 C59.9578472,27 56.721114,25.9959864 54,24.2769373 C54.4817463,24.33251 54.9710199,24.3621488 55.4678209,24.3621488 C58.3507715,24.3621488 61.00414,23.3914789 63.1117802,21.7687558 C60.4170117,21.7205928 58.1437712,19.9682001 57.3609334,17.5600494 C57.7372977,17.6304415 58.1211893,17.66749 58.5201355,17.66749 C59.0809183,17.66749 59.622883,17.593393 60.1422657,17.4563137 C57.3270606,16.9005866 55.2043658,14.4516826 55.2043658,11.5137388 L55.2043658,11.4396419 C56.0323673,11.8916332 56.9845691,12.1657919 57.9932254,12.1954307 C56.3409861,11.1099105 55.2532932,9.25748688 55.2532932,7.15313368 C55.2532932,6.04167953 55.5581483,5.00061747 56.088822,4.10774931 C59.1223184,7.77184316 63.6575085,10.1836987 68.7722996,10.4393331 C68.6706812,9.99475147 68.6142266,9.53164557 68.6142266,9.05742513 C68.6142266,5.71194813 71.3692134,3 74.7715469,3 C76.5404592,3 78.1400075,3.73355974 79.2615732,4.91170114 C80.6654121,4.6412473 81.9826872,4.13738808 83.1719985,3.44087681 C82.712834,4.85612843 81.7342868,6.04538438 80.465939,6.79376351 C81.7117049,6.64556962 82.8972525,6.32324792 84,5.83791294 C83.1757621,7.05310281 82.133233,8.1200988 80.9288671,8.97591849" id="Path"></path>
                        <path d="M4.13832138,27 L4.13832138,14.6839847 L1.96601644e-13,14.6839847 L1.96601644e-13,9.88417541 L4.13832138,9.88417541 L4.13832138,6.34449476 C4.13832138,2.23677312 6.64330149,4.26325641e-14 10.3021382,4.26325641e-14 C12.0548152,4.26325641e-14 13.5610871,0.130600572 14,0.188989514 L14,4.48188751 L11.4624197,4.48307912 C9.47261787,4.48307912 9.08724547,5.43005243 9.08724547,6.81970925 L9.08724547,9.88417541 L13.8329537,9.88417541 L13.2150967,14.6839847 L9.08724547,14.6839847 L9.08724547,27 L4.13832138,27 Z" id="fb"></path>
                        <text id="" font-family="FontAwesome" font-size="24" font-weight="normal">
                            <tspan x="119" y="23"></tspan>
                        </text>
                    </g>
                </g>
            </g>
        </g>
    </g>
</svg>